<svg xmlns="http://www.w3.org/2000/svg" xmlns:xlink="http://www.w3.org/1999/xlink" width="544" height="500" viewBox="0 0 544 500">
  <defs>
    <filter id="544*500-a" width="372%" height="559.6%" x="-136%" y="-229.8%" filterUnits="objectBoundingBox">
      <feGaussianBlur in="SourceGraphic" stdDeviation="22.715"/>
    </filter>
    <filter id="544*500-b" width="480.3%" height="736.2%" x="-190.1%" y="-318.1%" filterUnits="objectBoundingBox">
      <feGaussianBlur in="SourceGraphic" stdDeviation="22.715"/>
    </filter>
    <filter id="544*500-c" width="1145.3%" height="1826.4%" x="-522.6%" y="-863.2%" filterUnits="objectBoundingBox">
      <feGaussianBlur in="SourceGraphic" stdDeviation="22.715"/>
    </filter>
    <filter id="544*500-d" width="622.6%" height="963.2%" x="-261.3%" y="-431.6%" filterUnits="objectBoundingBox">
      <feGaussianBlur in="SourceGraphic" stdDeviation="22.715"/>
    </filter>
    <path id="544*500-f" d="M10.2046623,23.979947 C10.6555497,23.979947 14.5189934,21.4407152 14.5189934,21.4407152 C17.9567417,18.9405828 19.957298,17.3003974 19.957298,13.4246623 L19.957298,4.23531126 C19.957298,3.92288742 19.7072318,3.6725298 19.4571656,3.6101457 C18.0820397,3.42249007 15.018596,2.6725298 10.2678675,0.109483444 C10.0804238,-0.0155496689 9.89274172,-0.0155496689 9.7050596,0.109483444 C4.89168212,2.6725298 1.89112583,3.42246358 0.515761589,3.6101457 C0.203337748,3.6725298 0.0156291391,3.92288742 0.0156291391,4.23531126 L0.0156291391,13.4246358 C0.0156291391,17.3630464 2.07880795,19.2768477 5.57949669,21.7148609 L6.26701987,22.1523709 C6.57949669,22.3403179 9.71308609,23.979947 10.2046623,23.979947 Z"/>
    <filter id="544*500-e" width="175.2%" height="162.6%" x="-37.6%" y="-27.1%" filterUnits="objectBoundingBox">
      <feMorphology in="SourceAlpha" operator="dilate" radius="1" result="shadowSpreadOuter1"/>
      <feOffset dy="1" in="shadowSpreadOuter1" result="shadowOffsetOuter1"/>
      <feGaussianBlur in="shadowOffsetOuter1" result="shadowBlurOuter1" stdDeviation="2"/>
      <feComposite in="shadowBlurOuter1" in2="SourceAlpha" operator="out" result="shadowBlurOuter1"/>
      <feColorMatrix in="shadowBlurOuter1" values="0 0 0 0 0.882352941   0 0 0 0 0.588235294   0 0 0 0 0  0 0 0 1 0"/>
    </filter>
    <linearGradient id="544*500-g" x1="50%" x2="50%" y1="0%" y2="100%">
      <stop offset="0%" stop-color="#EEE"/>
      <stop offset="100%" stop-color="#D8D8D8"/>
    </linearGradient>
    <linearGradient id="544*500-h" x1="95.174%" x2="6.654%" y1="46.251%" y2="50%">
      <stop offset="0%" stop-color="#E3E3FC"/>
      <stop offset="100%" stop-color="#DDDDFB"/>
    </linearGradient>
    <linearGradient id="544*500-i" x1="97.229%" x2="2.608%" y1="47.692%" y2="53.592%">
      <stop offset="0%" stop-color="#073490"/>
      <stop offset="100%" stop-color="#004ED1"/>
    </linearGradient>
    <linearGradient id="544*500-j" x1="95.788%" x2="3.522%" y1="46.643%" y2="53.8%">
      <stop offset="0%" stop-color="#26B0E4"/>
      <stop offset="100%" stop-color="#02FBFE"/>
    </linearGradient>
  </defs>
  <g fill="none" transform="translate(1.938)">
    <path fill="#004ED1" d="M26.5741014,314.766573 C90.2939817,227.854143 114.722406,165.911118 99.859375,128.9375 C63.4847936,38.4512551 233.920414,-25.5341807 331.990705,11.4297787 C365.822973,24.1815975 398.780276,44.613982 427.190784,70.2219257 C495.782099,132.047025 537.870993,224.0395 501.785755,310.947721 C477.614943,369.161064 236.478751,485.262962 194.04136,492.799326 C86.0569835,511.976036 24.3052359,478.213892 8.78611745,391.512892 L8.78611762,391.512892 C3.96425917,364.57451 10.3931582,336.837002 26.5741014,314.766573 Z" opacity=".04"/>
    <g transform="translate(0 82)">
      <g transform="translate(110.668 50.005)">
        <polygon fill="#004ED1" points=".642 7.26 12.436 14.102 24.229 7.26 24.229 121.995 12.646 128.516 .642 121.995"/>
        <polygon fill="#EEE" points="12.472 .202 .475 7.061 12.472 14.1 24.116 7.151"/>
        <polygon fill="#00AED1" points="37.13 16.382 48.924 23.224 60.717 16.382 60.717 101.263 49.134 107.785 37.13 101.263"/>
        <polygon fill="#EEE" points="48.96 9.324 36.962 16.183 48.96 23.222 60.604 16.273"/>
        <polygon fill="#A1A1A1" points="74.447 21.358 86.241 28.199 98.034 21.358 98.034 84.678 86.451 91.199 74.447 84.678"/>
        <polygon fill="#EEE" points="86.277 14.299 74.279 21.158 86.277 28.198 97.921 21.248" opacity=".44"/>
        <polygon fill="#E19600" points="111.764 28.821 123.558 35.663 135.351 28.821 135.351 58.141 123.768 64.663 111.764 58.141"/>
        <polygon fill="#EEE" points="123.594 21.763 111.597 28.622 123.594 35.661 135.238 28.712"/>
      </g>
      <path stroke="#0AD4B6" d="M108.879883 178.907227L101.868704 183.117296M96.3935948 186.206426L89.8857422 190.114258 96.5553437 194.326513M103.501612 198.7135L111.879883 204.004883 117.480404 200.685648 122.937721 197.451287M128.180127 194.344295L134.582465 190.443856M138.871983 187.830592L144.877509 184.171899M148.446373 182.333196L158.193237 176.556568M163.880324 173.186029L170.335456 169.360297M177.215077 165.948998L189.537612 157.979847M193.843158 155.4281L196.636193 153.772765M199.521683 152.062635L207.510742 146.883789M211.521683 144.062635L219.510742 138.883789M222.805924 136.57631L226.897663 139.593654M249.74335 217.86369L237.014866 224.430887M289.74335 198.86369L277.014866 205.430887M231.898437 227.198242L225.02888 230.970763M194.414568 270.359979L208.907971 279.212025M225.768204 289.509645L241.661847 299.216906M256.974118 308.569087L272.385605 317.981865M287.218191 327.041071L292.268258 330.125469M296.690133 332.826191L302.732422 336.516602 310.473157 331.16694M314.067849 328.68263L320.847656 323.99707M319.338175 325.04486L331.830568 316.414748M344.857832 307.415132L360.077175 296.901164M374.224161 287.128011L388.202456 277.471394M398.399409 270.42704L409.979702 262.427034M414.826202 258.933954L426.306641 251.00293 418.168997 246.085196M410.873579 241.467796L397.527531 233.402523M443.576172 173.004883L443.576172 186.731445M443.576172 152.004883L443.576172 165.731445M443.576172 198.223633L443.576172 210.987305M443.576172 220.901367L443.576172 234.334961M443.576172 246.168945L443.576172 252.447266M443.576172 257.574219C443.576172 260.663411 443.576172 262.208008 443.576172 262.208008 443.576172 262.208008 441.161859 260.689586 436.333233 257.652742M433.01344 255.306991L428.533203 252.489258"/>
      <g transform="matrix(-1 0 0 1 483.827 100.479)">
        <path fill="#CFCFCF" d="M19.5662751,26.9011067 C30.1064312,0.0822300069 41.167325,-6.43004693 52.7489564,7.3642759 C62.9847293,0.369684408 68.9963804,1.38040051 70.7839096,10.3964242 C72.8075108,20.6031584 66.5379556,31.152976 60.7096767,35.2344866 C43.2017707,45.9753663 36.6157506,50.0616091 11.7581679,63.2153122 C6.98002033,65.7437292 1.48139633,64.1587919 0.651726817,58.2074762 C-0.177942693,52.2561605 1.48139633,42.2476405 6.76393684,35.2344866 C10.2856305,30.5590508 14.5530766,27.7812574 19.5662751,26.9011067 Z"/>
        <path fill="#EAEAEA" d="M23.2005942,30.5354257 C33.7407503,3.71654902 44.801644,-2.79572791 56.3832754,10.9985949 C66.6190483,4.00400342 72.6306994,5.01471953 74.4182287,14.0307432 C76.4418298,24.2374774 70.1722746,34.787295 64.3439957,38.8688057 C46.8360898,49.6096853 40.2500696,53.6959281 15.3924869,66.8496313 C10.6143394,69.3780482 5.11571534,67.7931109 4.28604583,61.8417952 C3.45637632,55.8904795 5.11571534,45.8819595 10.3982559,38.8688057 C13.9199495,34.1933698 18.1873956,31.4155765 23.2005942,30.5354257 Z"/>
      </g>
      <g transform="translate(226.635 56.543)">
        <g transform="translate(14 .344)">
          <g transform="translate(.608 78.82)">
            <polygon fill="#B6E2FF" points=".075 21.543 32.591 40.108 69.275 18.797 36.865 .093"/>
            <polygon fill="#7BB8FF" points=".049 21.539 .049 31.049 32.607 49.382 32.607 40.098"/>
            <path fill="#007FE2" d="M8.10153341,34.8153755 L8.10153341,26.8675648 L9.59198604,27.7109748 L9.53791757,35.6277604 L8.10153341,34.8153755 Z M19.4444444,41.2514279 L19.4444444,33.3036172 L20.9348971,34.1470273 L20.8808286,42.0638129 L19.4444444,41.2514279 Z M16.6161616,39.6848589 L16.6161616,31.7370482 L18.1066143,32.5804582 L18.0525458,40.4972439 L16.6161616,39.6848589 Z M13.7878788,38.0741843 L13.7878788,30.1263736 L15.2783314,30.9697836 L15.224263,38.8865692 L13.7878788,38.0741843 Z M10.959596,36.474385 L10.959596,28.5265743 L12.4500486,29.3699844 L12.3959801,37.28677 L10.959596,36.474385 Z" opacity=".66"/>
            <polygon fill="#A8E5FF" points="3.859 28.452 5.325 29.279 5.325 27.711 3.859 26.868"/>
            <path fill="#0282E3" d="M27.5459779,41.1790118 C27.9442577,41.834229 28.6776577,42.1756144 29.0120813,42.0067496 C29.3465049,41.8378848 29.4663641,41.1860619 29.0120813,40.4387133 C28.5577984,39.6913647 27.883726,39.424294 27.5459779,39.5948375 C27.2082297,39.7653811 27.147698,40.5237947 27.5459779,41.1790118 Z"/>
            <polygon fill="#17CBC8" points="3.859 30.926 5.327 31.742 5.327 30.152 3.859 29.342"/>
            <polygon fill="#00DBB3" points="21.919 36.587 21.919 38.262 25.419 40.017 25.419 38.51"/>
            <polygon fill="#BAE1FE" points="21.919 39.31 21.919 40.986 29.661 45.215 29.661 43.708"/>
            <polygon fill="#018FFA" points="32.611 40.075 32.611 49.378 69.316 27.434 69.316 18.764"/>
          </g>
          <g transform="translate(5.204 88.61)">
            <polygon fill="#088DF6" points=".128 12.822 28.011 28.524 28.011 19.239 .483 3.547"/>
            <polygon fill="#0085E8" points="28.015 19.217 28.015 28.52 53.004 13.58 60.626 9.023 60.666 .26 53.015 4.702"/>
          </g>
          <g transform="translate(.608 65.386)">
            <polygon fill="#B6E2FF" points=".075 21.543 32.591 40.108 69.275 18.797 36.865 .093"/>
            <polygon fill="#7BB8FF" points=".049 21.539 .049 31.049 32.607 49.382 32.607 40.098"/>
            <path fill="#007FE2" d="M8.10153341,34.8153755 L8.10153341,26.8675648 L9.59198604,27.7109748 L9.53791757,35.6277604 L8.10153341,34.8153755 Z M19.4444444,41.2514279 L19.4444444,33.3036172 L20.9348971,34.1470273 L20.8808286,42.0638129 L19.4444444,41.2514279 Z M16.6161616,39.6848589 L16.6161616,31.7370482 L18.1066143,32.5804582 L18.0525458,40.4972439 L16.6161616,39.6848589 Z M13.7878788,38.0741843 L13.7878788,30.1263736 L15.2783314,30.9697836 L15.224263,38.8865692 L13.7878788,38.0741843 Z M10.959596,36.474385 L10.959596,28.5265743 L12.4500486,29.3699844 L12.3959801,37.28677 L10.959596,36.474385 Z" opacity=".66"/>
            <polygon fill="#A8E5FF" points="3.859 28.452 5.325 29.279 5.325 27.711 3.859 26.868"/>
            <path fill="#0282E3" d="M27.5459779,41.1790118 C27.9442577,41.834229 28.6776577,42.1756144 29.0120813,42.0067496 C29.3465049,41.8378848 29.4663641,41.1860619 29.0120813,40.4387133 C28.5577984,39.6913647 27.883726,39.424294 27.5459779,39.5948375 C27.2082297,39.7653811 27.147698,40.5237947 27.5459779,41.1790118 Z"/>
            <polygon fill="#17CBC8" points="3.859 30.926 5.327 31.742 5.327 30.152 3.859 29.342"/>
            <polygon fill="#00DBB3" points="21.919 36.587 21.919 38.262 25.419 40.017 25.419 38.51"/>
            <polygon fill="#BAE1FE" points="21.919 39.31 21.919 40.986 29.661 45.215 29.661 43.708"/>
            <polygon fill="#018FFA" points="32.611 40.075 32.611 49.378 69.316 27.434 69.316 18.764"/>
          </g>
          <g transform="translate(5.204 75.175)">
            <polygon fill="#088DF6" points=".128 12.822 28.011 28.524 28.011 19.239 .483 3.547"/>
            <polygon fill="#0085E8" points="28.015 19.217 28.015 28.52 53.004 13.58 60.626 9.023 60.666 .26 53.015 4.702"/>
          </g>
          <g transform="translate(.608 51.951)">
            <polygon fill="#B6E2FF" points=".075 21.543 32.591 40.108 69.275 18.797 36.865 .093"/>
            <polygon fill="#7BB8FF" points=".049 21.539 .049 31.049 32.607 49.382 32.607 40.098"/>
            <path fill="#007FE2" d="M8.10153341,34.8153755 L8.10153341,26.8675648 L9.59198604,27.7109748 L9.53791757,35.6277604 L8.10153341,34.8153755 Z M19.4444444,41.2514279 L19.4444444,33.3036172 L20.9348971,34.1470273 L20.8808286,42.0638129 L19.4444444,41.2514279 Z M16.6161616,39.6848589 L16.6161616,31.7370482 L18.1066143,32.5804582 L18.0525458,40.4972439 L16.6161616,39.6848589 Z M13.7878788,38.0741843 L13.7878788,30.1263736 L15.2783314,30.9697836 L15.224263,38.8865692 L13.7878788,38.0741843 Z M10.959596,36.474385 L10.959596,28.5265743 L12.4500486,29.3699844 L12.3959801,37.28677 L10.959596,36.474385 Z" opacity=".66"/>
            <polygon fill="#A8E5FF" points="3.859 28.452 5.325 29.279 5.325 27.711 3.859 26.868"/>
            <path fill="#0282E3" d="M27.5459779,41.1790118 C27.9442577,41.834229 28.6776577,42.1756144 29.0120813,42.0067496 C29.3465049,41.8378848 29.4663641,41.1860619 29.0120813,40.4387133 C28.5577984,39.6913647 27.883726,39.424294 27.5459779,39.5948375 C27.2082297,39.7653811 27.147698,40.5237947 27.5459779,41.1790118 Z"/>
            <polygon fill="#17CBC8" points="3.859 30.926 5.327 31.742 5.327 30.152 3.859 29.342"/>
            <polygon fill="#00DBB3" points="21.919 36.587 21.919 38.262 25.419 40.017 25.419 38.51"/>
            <polygon fill="#BAE1FE" points="21.919 39.31 21.919 40.986 29.661 45.215 29.661 43.708"/>
            <polygon fill="#018FFA" points="32.611 40.075 32.611 49.378 69.316 27.434 69.316 18.764"/>
          </g>
          <g transform="translate(5.204 61.387)">
            <polygon fill="#088DF6" points=".128 12.822 28.011 28.524 28.011 19.239 .483 3.547"/>
            <polygon fill="#0085E8" points="28.015 19.217 28.015 28.52 53.004 13.58 60.626 9.023 60.666 .26 53.015 4.702"/>
          </g>
          <g transform="translate(.608 38.517)">
            <polygon fill="#B6E2FF" points=".075 21.543 32.591 40.108 69.275 18.797 36.865 .093"/>
            <polygon fill="#7BB8FF" points=".049 21.539 .049 31.049 32.607 49.382 32.607 40.098"/>
            <path fill="#007FE2" d="M8.10153341,34.8153755 L8.10153341,26.8675648 L9.59198604,27.7109748 L9.53791757,35.6277604 L8.10153341,34.8153755 Z M19.4444444,41.2514279 L19.4444444,33.3036172 L20.9348971,34.1470273 L20.8808286,42.0638129 L19.4444444,41.2514279 Z M16.6161616,39.6848589 L16.6161616,31.7370482 L18.1066143,32.5804582 L18.0525458,40.4972439 L16.6161616,39.6848589 Z M13.7878788,38.0741843 L13.7878788,30.1263736 L15.2783314,30.9697836 L15.224263,38.8865692 L13.7878788,38.0741843 Z M10.959596,36.474385 L10.959596,28.5265743 L12.4500486,29.3699844 L12.3959801,37.28677 L10.959596,36.474385 Z" opacity=".66"/>
            <polygon fill="#A8E5FF" points="3.859 28.452 5.325 29.279 5.325 27.711 3.859 26.868"/>
            <path fill="#0282E3" d="M27.5459779,41.1790118 C27.9442577,41.834229 28.6776577,42.1756144 29.0120813,42.0067496 C29.3465049,41.8378848 29.4663641,41.1860619 29.0120813,40.4387133 C28.5577984,39.6913647 27.883726,39.424294 27.5459779,39.5948375 C27.2082297,39.7653811 27.147698,40.5237947 27.5459779,41.1790118 Z"/>
            <polygon fill="#17CBC8" points="3.859 30.926 5.327 31.742 5.327 30.152 3.859 29.342"/>
            <polygon fill="#00DBB3" points="21.919 36.587 21.919 38.262 25.419 40.017 25.419 38.51"/>
            <polygon fill="#BAE1FE" points="21.919 39.31 21.919 40.986 29.661 45.215 29.661 43.708"/>
            <polygon fill="#018FFA" points="32.611 40.075 32.611 49.378 69.316 27.434 69.316 18.764"/>
          </g>
          <g transform="translate(5.204 48.387)">
            <polygon fill="#088DF6" points=".128 12.822 28.011 28.524 28.011 19.239 .483 3.547"/>
            <polygon fill="#0085E8" points="28.015 19.217 28.015 28.52 53.004 13.58 60.626 9.023 60.666 .26 53.015 4.702"/>
          </g>
          <g transform="translate(.608 25.517)">
            <polygon fill="#B6E2FF" points=".075 21.543 32.591 40.108 69.275 18.797 36.865 .093"/>
            <polygon fill="#7BB8FF" points=".049 21.539 .049 31.049 32.607 49.382 32.607 40.098"/>
            <path fill="#007FE2" d="M8.10153341,34.8153755 L8.10153341,26.8675648 L9.59198604,27.7109748 L9.53791757,35.6277604 L8.10153341,34.8153755 Z M19.4444444,41.2514279 L19.4444444,33.3036172 L20.9348971,34.1470273 L20.8808286,42.0638129 L19.4444444,41.2514279 Z M16.6161616,39.6848589 L16.6161616,31.7370482 L18.1066143,32.5804582 L18.0525458,40.4972439 L16.6161616,39.6848589 Z M13.7878788,38.0741843 L13.7878788,30.1263736 L15.2783314,30.9697836 L15.224263,38.8865692 L13.7878788,38.0741843 Z M10.959596,36.474385 L10.959596,28.5265743 L12.4500486,29.3699844 L12.3959801,37.28677 L10.959596,36.474385 Z" opacity=".66"/>
            <polygon fill="#A8E5FF" points="3.859 28.452 5.325 29.279 5.325 27.711 3.859 26.868"/>
            <path fill="#0282E3" d="M27.5459779,41.1790118 C27.9442577,41.834229 28.6776577,42.1756144 29.0120813,42.0067496 C29.3465049,41.8378848 29.4663641,41.1860619 29.0120813,40.4387133 C28.5577984,39.6913647 27.883726,39.424294 27.5459779,39.5948375 C27.2082297,39.7653811 27.147698,40.5237947 27.5459779,41.1790118 Z"/>
            <polygon fill="#17CBC8" points="3.859 30.926 5.327 31.742 5.327 30.152 3.859 29.342"/>
            <polygon fill="#00DBB3" points="21.919 36.587 21.919 38.262 25.419 40.017 25.419 38.51"/>
            <polygon fill="#BAE1FE" points="21.919 39.31 21.919 40.986 29.661 45.215 29.661 43.708"/>
            <polygon fill="#018FFA" points="32.611 40.075 32.611 49.378 69.316 27.434 69.316 18.764"/>
          </g>
          <g transform="translate(.608 13.82)">
            <polygon fill="#B6E2FF" points=".075 21.543 32.591 40.108 69.275 18.797 36.865 .093"/>
            <polygon fill="#7BB8FF" points=".049 21.539 .049 31.049 32.607 49.382 32.607 40.098"/>
            <path fill="#007FE2" d="M8.10153341,34.8153755 L8.10153341,26.8675648 L9.59198604,27.7109748 L9.53791757,35.6277604 L8.10153341,34.8153755 Z M19.4444444,41.2514279 L19.4444444,33.3036172 L20.9348971,34.1470273 L20.8808286,42.0638129 L19.4444444,41.2514279 Z M16.6161616,39.6848589 L16.6161616,31.7370482 L18.1066143,32.5804582 L18.0525458,40.4972439 L16.6161616,39.6848589 Z M13.7878788,38.0741843 L13.7878788,30.1263736 L15.2783314,30.9697836 L15.224263,38.8865692 L13.7878788,38.0741843 Z M10.959596,36.474385 L10.959596,28.5265743 L12.4500486,29.3699844 L12.3959801,37.28677 L10.959596,36.474385 Z" opacity=".66"/>
            <polygon fill="#A8E5FF" points="3.859 28.452 5.325 29.279 5.325 27.711 3.859 26.868"/>
            <path fill="#0282E3" d="M27.5459779,41.1790118 C27.9442577,41.834229 28.6776577,42.1756144 29.0120813,42.0067496 C29.3465049,41.8378848 29.4663641,41.1860619 29.0120813,40.4387133 C28.5577984,39.6913647 27.883726,39.424294 27.5459779,39.5948375 C27.2082297,39.7653811 27.147698,40.5237947 27.5459779,41.1790118 Z"/>
            <polygon fill="#17CBC8" points="3.859 30.926 5.327 31.742 5.327 30.152 3.859 29.342"/>
            <polygon fill="#00DBB3" points="21.919 36.587 21.919 38.262 25.419 40.017 25.419 38.51"/>
            <polygon fill="#BAE1FE" points="21.919 39.31 21.919 40.986 29.661 45.215 29.661 43.708"/>
            <polygon fill="#018FFA" points="32.611 40.075 32.611 49.378 69.316 27.434 69.316 18.764"/>
          </g>
          <g transform="translate(5.204 23.61)">
            <polygon fill="#088DF6" points=".128 12.822 28.011 28.524 28.011 19.239 .483 3.547"/>
            <polygon fill="#0085E8" points="28.015 19.217 28.015 28.52 53.004 13.58 60.626 9.023 60.666 .26 53.015 4.702"/>
          </g>
          <g transform="translate(.608 .386)">
            <polygon fill="#B6E2FF" points=".075 21.543 32.591 40.108 69.275 18.797 36.865 .093"/>
            <polygon fill="#7BB8FF" points=".049 21.539 .049 31.049 32.607 49.382 32.607 40.098"/>
            <path fill="#007FE2" d="M8.10153341,34.8153755 L8.10153341,26.8675648 L9.59198604,27.7109748 L9.53791757,35.6277604 L8.10153341,34.8153755 Z M19.4444444,41.2514279 L19.4444444,33.3036172 L20.9348971,34.1470273 L20.8808286,42.0638129 L19.4444444,41.2514279 Z M16.6161616,39.6848589 L16.6161616,31.7370482 L18.1066143,32.5804582 L18.0525458,40.4972439 L16.6161616,39.6848589 Z M13.7878788,38.0741843 L13.7878788,30.1263736 L15.2783314,30.9697836 L15.224263,38.8865692 L13.7878788,38.0741843 Z M10.959596,36.474385 L10.959596,28.5265743 L12.4500486,29.3699844 L12.3959801,37.28677 L10.959596,36.474385 Z" opacity=".66"/>
            <polygon fill="#A8E5FF" points="3.859 28.452 5.325 29.279 5.325 27.711 3.859 26.868"/>
            <path fill="#0282E3" d="M27.5459779,41.1790118 C27.9442577,41.834229 28.6776577,42.1756144 29.0120813,42.0067496 C29.3465049,41.8378848 29.4663641,41.1860619 29.0120813,40.4387133 C28.5577984,39.6913647 27.883726,39.424294 27.5459779,39.5948375 C27.2082297,39.7653811 27.147698,40.5237947 27.5459779,41.1790118 Z"/>
            <polygon fill="#17CBC8" points="3.859 30.926 5.327 31.742 5.327 30.152 3.859 29.342"/>
            <polygon fill="#00DBB3" points="21.919 36.587 21.919 38.262 25.419 40.017 25.419 38.51"/>
            <polygon fill="#BAE1FE" points="21.919 39.31 21.919 40.986 29.661 45.215 29.661 43.708"/>
            <polygon fill="#018FFA" points="32.611 40.075 32.611 49.378 69.316 27.434 69.316 18.764"/>
          </g>
          <g transform="translate(49 30)">
            <g transform="translate(.608 78.906)">
              <polygon fill="#B6E2FF" points=".075 21.543 32.591 40.108 69.275 18.797 36.865 .093"/>
              <polygon fill="#7BB8FF" points=".049 21.539 .049 31.049 32.607 49.382 32.607 40.098"/>
              <path fill="#007FE2" d="M8.10153341,34.8153755 L8.10153341,26.8675648 L9.59198604,27.7109748 L9.53791757,35.6277604 L8.10153341,34.8153755 Z M19.4444444,41.2514279 L19.4444444,33.3036172 L20.9348971,34.1470273 L20.8808286,42.0638129 L19.4444444,41.2514279 Z M16.6161616,39.6848589 L16.6161616,31.7370482 L18.1066143,32.5804582 L18.0525458,40.4972439 L16.6161616,39.6848589 Z M13.7878788,38.0741843 L13.7878788,30.1263736 L15.2783314,30.9697836 L15.224263,38.8865692 L13.7878788,38.0741843 Z M10.959596,36.474385 L10.959596,28.5265743 L12.4500486,29.3699844 L12.3959801,37.28677 L10.959596,36.474385 Z" opacity=".66"/>
              <polygon fill="#A8E5FF" points="3.859 28.452 5.325 29.279 5.325 27.711 3.859 26.868"/>
              <path fill="#0282E3" d="M27.5459779,41.1790118 C27.9442577,41.834229 28.6776577,42.1756144 29.0120813,42.0067496 C29.3465049,41.8378848 29.4663641,41.1860619 29.0120813,40.4387133 C28.5577984,39.6913647 27.883726,39.424294 27.5459779,39.5948375 C27.2082297,39.7653811 27.147698,40.5237947 27.5459779,41.1790118 Z"/>
              <polygon fill="#17CBC8" points="3.859 30.926 5.327 31.742 5.327 30.152 3.859 29.342"/>
              <polygon fill="#00DBB3" points="21.919 36.587 21.919 38.262 25.419 40.017 25.419 38.51"/>
              <polygon fill="#BAE1FE" points="21.919 39.31 21.919 40.986 29.661 45.215 29.661 43.708"/>
              <polygon fill="#018FFA" points="32.611 40.075 32.611 49.378 69.316 27.434 69.316 18.764"/>
            </g>
            <g transform="translate(5.204 88.695)">
              <polygon fill="#088DF6" points=".128 12.822 28.011 28.524 28.011 19.239 .483 3.547"/>
              <polygon fill="#0085E8" points="28.015 19.217 28.015 28.52 53.004 13.58 60.626 9.023 60.666 .26 53.015 4.702"/>
            </g>
            <g transform="translate(.608 65.472)">
              <polygon fill="#B6E2FF" points=".075 21.543 32.591 40.108 69.275 18.797 36.865 .093"/>
              <polygon fill="#7BB8FF" points=".049 21.539 .049 31.049 32.607 49.382 32.607 40.098"/>
              <path fill="#007FE2" d="M8.10153341,34.8153755 L8.10153341,26.8675648 L9.59198604,27.7109748 L9.53791757,35.6277604 L8.10153341,34.8153755 Z M19.4444444,41.2514279 L19.4444444,33.3036172 L20.9348971,34.1470273 L20.8808286,42.0638129 L19.4444444,41.2514279 Z M16.6161616,39.6848589 L16.6161616,31.7370482 L18.1066143,32.5804582 L18.0525458,40.4972439 L16.6161616,39.6848589 Z M13.7878788,38.0741843 L13.7878788,30.1263736 L15.2783314,30.9697836 L15.224263,38.8865692 L13.7878788,38.0741843 Z M10.959596,36.474385 L10.959596,28.5265743 L12.4500486,29.3699844 L12.3959801,37.28677 L10.959596,36.474385 Z" opacity=".66"/>
              <polygon fill="#A8E5FF" points="3.859 28.452 5.325 29.279 5.325 27.711 3.859 26.868"/>
              <path fill="#0282E3" d="M27.5459779,41.1790118 C27.9442577,41.834229 28.6776577,42.1756144 29.0120813,42.0067496 C29.3465049,41.8378848 29.4663641,41.1860619 29.0120813,40.4387133 C28.5577984,39.6913647 27.883726,39.424294 27.5459779,39.5948375 C27.2082297,39.7653811 27.147698,40.5237947 27.5459779,41.1790118 Z"/>
              <polygon fill="#17CBC8" points="3.859 30.926 5.327 31.742 5.327 30.152 3.859 29.342"/>
              <polygon fill="#00DBB3" points="21.919 36.587 21.919 38.262 25.419 40.017 25.419 38.51"/>
              <polygon fill="#BAE1FE" points="21.919 39.31 21.919 40.986 29.661 45.215 29.661 43.708"/>
              <polygon fill="#018FFA" points="32.611 40.075 32.611 49.378 69.316 27.434 69.316 18.764"/>
            </g>
            <g transform="translate(5.204 75.26)">
              <polygon fill="#088DF6" points=".128 12.822 28.011 28.524 28.011 19.239 .483 3.547"/>
              <polygon fill="#0085E8" points="28.015 19.217 28.015 28.52 53.004 13.58 60.626 9.023 60.666 .26 53.015 4.702"/>
            </g>
            <g transform="translate(.608 52.037)">
              <polygon fill="#B6E2FF" points=".075 21.543 32.591 40.108 69.275 18.797 36.865 .093"/>
              <polygon fill="#7BB8FF" points=".049 21.539 .049 31.049 32.607 49.382 32.607 40.098"/>
              <path fill="#007FE2" d="M8.10153341,34.8153755 L8.10153341,26.8675648 L9.59198604,27.7109748 L9.53791757,35.6277604 L8.10153341,34.8153755 Z M19.4444444,41.2514279 L19.4444444,33.3036172 L20.9348971,34.1470273 L20.8808286,42.0638129 L19.4444444,41.2514279 Z M16.6161616,39.6848589 L16.6161616,31.7370482 L18.1066143,32.5804582 L18.0525458,40.4972439 L16.6161616,39.6848589 Z M13.7878788,38.0741843 L13.7878788,30.1263736 L15.2783314,30.9697836 L15.224263,38.8865692 L13.7878788,38.0741843 Z M10.959596,36.474385 L10.959596,28.5265743 L12.4500486,29.3699844 L12.3959801,37.28677 L10.959596,36.474385 Z" opacity=".66"/>
              <polygon fill="#A8E5FF" points="3.859 28.452 5.325 29.279 5.325 27.711 3.859 26.868"/>
              <path fill="#0282E3" d="M27.5459779,41.1790118 C27.9442577,41.834229 28.6776577,42.1756144 29.0120813,42.0067496 C29.3465049,41.8378848 29.4663641,41.1860619 29.0120813,40.4387133 C28.5577984,39.6913647 27.883726,39.424294 27.5459779,39.5948375 C27.2082297,39.7653811 27.147698,40.5237947 27.5459779,41.1790118 Z"/>
              <polygon fill="#17CBC8" points="3.859 30.926 5.327 31.742 5.327 30.152 3.859 29.342"/>
              <polygon fill="#00DBB3" points="21.919 36.587 21.919 38.262 25.419 40.017 25.419 38.51"/>
              <polygon fill="#BAE1FE" points="21.919 39.31 21.919 40.986 29.661 45.215 29.661 43.708"/>
              <polygon fill="#018FFA" points="32.611 40.075 32.611 49.378 69.316 27.434 69.316 18.764"/>
            </g>
            <g transform="translate(5.204 61.473)">
              <polygon fill="#088DF6" points=".128 12.822 28.011 28.524 28.011 19.239 .483 3.547"/>
              <polygon fill="#0085E8" points="28.015 19.217 28.015 28.52 53.004 13.58 60.626 9.023 60.666 .26 53.015 4.702"/>
            </g>
            <g transform="translate(.608 38.603)">
              <polygon fill="#B6E2FF" points=".075 21.543 32.591 40.108 69.275 18.797 36.865 .093"/>
              <polygon fill="#7BB8FF" points=".049 21.539 .049 31.049 32.607 49.382 32.607 40.098"/>
              <path fill="#007FE2" d="M8.10153341,34.8153755 L8.10153341,26.8675648 L9.59198604,27.7109748 L9.53791757,35.6277604 L8.10153341,34.8153755 Z M19.4444444,41.2514279 L19.4444444,33.3036172 L20.9348971,34.1470273 L20.8808286,42.0638129 L19.4444444,41.2514279 Z M16.6161616,39.6848589 L16.6161616,31.7370482 L18.1066143,32.5804582 L18.0525458,40.4972439 L16.6161616,39.6848589 Z M13.7878788,38.0741843 L13.7878788,30.1263736 L15.2783314,30.9697836 L15.224263,38.8865692 L13.7878788,38.0741843 Z M10.959596,36.474385 L10.959596,28.5265743 L12.4500486,29.3699844 L12.3959801,37.28677 L10.959596,36.474385 Z" opacity=".66"/>
              <polygon fill="#A8E5FF" points="3.859 28.452 5.325 29.279 5.325 27.711 3.859 26.868"/>
              <path fill="#0282E3" d="M27.5459779,41.1790118 C27.9442577,41.834229 28.6776577,42.1756144 29.0120813,42.0067496 C29.3465049,41.8378848 29.4663641,41.1860619 29.0120813,40.4387133 C28.5577984,39.6913647 27.883726,39.424294 27.5459779,39.5948375 C27.2082297,39.7653811 27.147698,40.5237947 27.5459779,41.1790118 Z"/>
              <polygon fill="#17CBC8" points="3.859 30.926 5.327 31.742 5.327 30.152 3.859 29.342"/>
              <polygon fill="#00DBB3" points="21.919 36.587 21.919 38.262 25.419 40.017 25.419 38.51"/>
              <polygon fill="#BAE1FE" points="21.919 39.31 21.919 40.986 29.661 45.215 29.661 43.708"/>
              <polygon fill="#018FFA" points="32.611 40.075 32.611 49.378 69.316 27.434 69.316 18.764"/>
            </g>
            <g transform="translate(5.204 48.473)">
              <polygon fill="#088DF6" points=".128 12.822 28.011 28.524 28.011 19.239 .483 3.547"/>
              <polygon fill="#0085E8" points="28.015 19.217 28.015 28.52 53.004 13.58 60.626 9.023 60.666 .26 53.015 4.702"/>
            </g>
            <g transform="translate(.608 25.603)">
              <polygon fill="#B6E2FF" points=".075 21.543 32.591 40.108 69.275 18.797 36.865 .093"/>
              <polygon fill="#7BB8FF" points=".049 21.539 .049 31.049 32.607 49.382 32.607 40.098"/>
              <path fill="#007FE2" d="M8.10153341,34.8153755 L8.10153341,26.8675648 L9.59198604,27.7109748 L9.53791757,35.6277604 L8.10153341,34.8153755 Z M19.4444444,41.2514279 L19.4444444,33.3036172 L20.9348971,34.1470273 L20.8808286,42.0638129 L19.4444444,41.2514279 Z M16.6161616,39.6848589 L16.6161616,31.7370482 L18.1066143,32.5804582 L18.0525458,40.4972439 L16.6161616,39.6848589 Z M13.7878788,38.0741843 L13.7878788,30.1263736 L15.2783314,30.9697836 L15.224263,38.8865692 L13.7878788,38.0741843 Z M10.959596,36.474385 L10.959596,28.5265743 L12.4500486,29.3699844 L12.3959801,37.28677 L10.959596,36.474385 Z" opacity=".66"/>
              <polygon fill="#A8E5FF" points="3.859 28.452 5.325 29.279 5.325 27.711 3.859 26.868"/>
              <path fill="#0282E3" d="M27.5459779,41.1790118 C27.9442577,41.834229 28.6776577,42.1756144 29.0120813,42.0067496 C29.3465049,41.8378848 29.4663641,41.1860619 29.0120813,40.4387133 C28.5577984,39.6913647 27.883726,39.424294 27.5459779,39.5948375 C27.2082297,39.7653811 27.147698,40.5237947 27.5459779,41.1790118 Z"/>
              <polygon fill="#17CBC8" points="3.859 30.926 5.327 31.742 5.327 30.152 3.859 29.342"/>
              <polygon fill="#00DBB3" points="21.919 36.587 21.919 38.262 25.419 40.017 25.419 38.51"/>
              <polygon fill="#BAE1FE" points="21.919 39.31 21.919 40.986 29.661 45.215 29.661 43.708"/>
              <polygon fill="#018FFA" points="32.611 40.075 32.611 49.378 69.316 27.434 69.316 18.764"/>
            </g>
            <g transform="translate(.608 13.906)">
              <polygon fill="#B6E2FF" points=".075 21.543 32.591 40.108 69.275 18.797 36.865 .093"/>
              <polygon fill="#7BB8FF" points=".049 21.539 .049 31.049 32.607 49.382 32.607 40.098"/>
              <path fill="#007FE2" d="M8.10153341,34.8153755 L8.10153341,26.8675648 L9.59198604,27.7109748 L9.53791757,35.6277604 L8.10153341,34.8153755 Z M19.4444444,41.2514279 L19.4444444,33.3036172 L20.9348971,34.1470273 L20.8808286,42.0638129 L19.4444444,41.2514279 Z M16.6161616,39.6848589 L16.6161616,31.7370482 L18.1066143,32.5804582 L18.0525458,40.4972439 L16.6161616,39.6848589 Z M13.7878788,38.0741843 L13.7878788,30.1263736 L15.2783314,30.9697836 L15.224263,38.8865692 L13.7878788,38.0741843 Z M10.959596,36.474385 L10.959596,28.5265743 L12.4500486,29.3699844 L12.3959801,37.28677 L10.959596,36.474385 Z" opacity=".66"/>
              <polygon fill="#A8E5FF" points="3.859 28.452 5.325 29.279 5.325 27.711 3.859 26.868"/>
              <path fill="#0282E3" d="M27.5459779,41.1790118 C27.9442577,41.834229 28.6776577,42.1756144 29.0120813,42.0067496 C29.3465049,41.8378848 29.4663641,41.1860619 29.0120813,40.4387133 C28.5577984,39.6913647 27.883726,39.424294 27.5459779,39.5948375 C27.2082297,39.7653811 27.147698,40.5237947 27.5459779,41.1790118 Z"/>
              <polygon fill="#17CBC8" points="3.859 30.926 5.327 31.742 5.327 30.152 3.859 29.342"/>
              <polygon fill="#00DBB3" points="21.919 36.587 21.919 38.262 25.419 40.017 25.419 38.51"/>
              <polygon fill="#BAE1FE" points="21.919 39.31 21.919 40.986 29.661 45.215 29.661 43.708"/>
              <polygon fill="#018FFA" points="32.611 40.075 32.611 49.378 69.316 27.434 69.316 18.764"/>
            </g>
            <g transform="translate(5.204 23.695)">
              <polygon fill="#088DF6" points=".128 12.822 28.011 28.524 28.011 19.239 .483 3.547"/>
              <polygon fill="#0085E8" points="28.015 19.217 28.015 28.52 53.004 13.58 60.626 9.023 60.666 .26 53.015 4.702"/>
            </g>
            <g transform="translate(.608 .472)">
              <polygon fill="#B6E2FF" points=".075 21.543 32.591 40.108 69.275 18.797 36.865 .093"/>
              <polygon fill="#7BB8FF" points=".049 21.539 .049 31.049 32.607 49.382 32.607 40.098"/>
              <path fill="#007FE2" d="M8.10153341,34.8153755 L8.10153341,26.8675648 L9.59198604,27.7109748 L9.53791757,35.6277604 L8.10153341,34.8153755 Z M19.4444444,41.2514279 L19.4444444,33.3036172 L20.9348971,34.1470273 L20.8808286,42.0638129 L19.4444444,41.2514279 Z M16.6161616,39.6848589 L16.6161616,31.7370482 L18.1066143,32.5804582 L18.0525458,40.4972439 L16.6161616,39.6848589 Z M13.7878788,38.0741843 L13.7878788,30.1263736 L15.2783314,30.9697836 L15.224263,38.8865692 L13.7878788,38.0741843 Z M10.959596,36.474385 L10.959596,28.5265743 L12.4500486,29.3699844 L12.3959801,37.28677 L10.959596,36.474385 Z" opacity=".66"/>
              <polygon fill="#A8E5FF" points="3.859 28.452 5.325 29.279 5.325 27.711 3.859 26.868"/>
              <path fill="#0282E3" d="M27.5459779,41.1790118 C27.9442577,41.834229 28.6776577,42.1756144 29.0120813,42.0067496 C29.3465049,41.8378848 29.4663641,41.1860619 29.0120813,40.4387133 C28.5577984,39.6913647 27.883726,39.424294 27.5459779,39.5948375 C27.2082297,39.7653811 27.147698,40.5237947 27.5459779,41.1790118 Z"/>
              <polygon fill="#17CBC8" points="3.859 30.926 5.327 31.742 5.327 30.152 3.859 29.342"/>
              <polygon fill="#00DBB3" points="21.919 36.587 21.919 38.262 25.419 40.017 25.419 38.51"/>
              <polygon fill="#BAE1FE" points="21.919 39.31 21.919 40.986 29.661 45.215 29.661 43.708"/>
              <polygon fill="#018FFA" points="32.611 40.075 32.611 49.378 69.316 27.434 69.316 18.764"/>
            </g>
          </g>
          <g transform="translate(99.327 60.298)">
            <g transform="translate(.28 78.608)">
              <polygon fill="#B6E2FF" points=".075 21.543 32.591 40.108 69.275 18.797 36.865 .093"/>
              <polygon fill="#7BB8FF" points=".049 21.539 .049 31.049 32.607 49.382 32.607 40.098"/>
              <path fill="#007FE2" d="M8.10153341,34.8153755 L8.10153341,26.8675648 L9.59198604,27.7109748 L9.53791757,35.6277604 L8.10153341,34.8153755 Z M19.4444444,41.2514279 L19.4444444,33.3036172 L20.9348971,34.1470273 L20.8808286,42.0638129 L19.4444444,41.2514279 Z M16.6161616,39.6848589 L16.6161616,31.7370482 L18.1066143,32.5804582 L18.0525458,40.4972439 L16.6161616,39.6848589 Z M13.7878788,38.0741843 L13.7878788,30.1263736 L15.2783314,30.9697836 L15.224263,38.8865692 L13.7878788,38.0741843 Z M10.959596,36.474385 L10.959596,28.5265743 L12.4500486,29.3699844 L12.3959801,37.28677 L10.959596,36.474385 Z" opacity=".66"/>
              <polygon fill="#A8E5FF" points="3.859 28.452 5.325 29.279 5.325 27.711 3.859 26.868"/>
              <path fill="#0282E3" d="M27.5459779,41.1790118 C27.9442577,41.834229 28.6776577,42.1756144 29.0120813,42.0067496 C29.3465049,41.8378848 29.4663641,41.1860619 29.0120813,40.4387133 C28.5577984,39.6913647 27.883726,39.424294 27.5459779,39.5948375 C27.2082297,39.7653811 27.147698,40.5237947 27.5459779,41.1790118 Z"/>
              <polygon fill="#17CBC8" points="3.859 30.926 5.327 31.742 5.327 30.152 3.859 29.342"/>
              <polygon fill="#00DBB3" points="21.919 36.587 21.919 38.262 25.419 40.017 25.419 38.51"/>
              <polygon fill="#BAE1FE" points="21.919 39.31 21.919 40.986 29.661 45.215 29.661 43.708"/>
              <polygon fill="#018FFA" points="32.611 40.075 32.611 49.378 69.316 27.434 69.316 18.764"/>
            </g>
            <g transform="translate(4.876 88.397)">
              <polygon fill="#088DF6" points=".128 12.822 28.011 28.524 28.011 19.239 .483 3.547"/>
              <polygon fill="#0085E8" points="28.015 19.217 28.015 28.52 53.004 13.58 60.626 9.023 60.666 .26 53.015 4.702"/>
            </g>
            <g transform="translate(.28 65.174)">
              <polygon fill="#B6E2FF" points=".075 21.543 32.591 40.108 69.275 18.797 36.865 .093"/>
              <polygon fill="#7BB8FF" points=".049 21.539 .049 31.049 32.607 49.382 32.607 40.098"/>
              <path fill="#007FE2" d="M8.10153341,34.8153755 L8.10153341,26.8675648 L9.59198604,27.7109748 L9.53791757,35.6277604 L8.10153341,34.8153755 Z M19.4444444,41.2514279 L19.4444444,33.3036172 L20.9348971,34.1470273 L20.8808286,42.0638129 L19.4444444,41.2514279 Z M16.6161616,39.6848589 L16.6161616,31.7370482 L18.1066143,32.5804582 L18.0525458,40.4972439 L16.6161616,39.6848589 Z M13.7878788,38.0741843 L13.7878788,30.1263736 L15.2783314,30.9697836 L15.224263,38.8865692 L13.7878788,38.0741843 Z M10.959596,36.474385 L10.959596,28.5265743 L12.4500486,29.3699844 L12.3959801,37.28677 L10.959596,36.474385 Z" opacity=".66"/>
              <polygon fill="#A8E5FF" points="3.859 28.452 5.325 29.279 5.325 27.711 3.859 26.868"/>
              <path fill="#0282E3" d="M27.5459779,41.1790118 C27.9442577,41.834229 28.6776577,42.1756144 29.0120813,42.0067496 C29.3465049,41.8378848 29.4663641,41.1860619 29.0120813,40.4387133 C28.5577984,39.6913647 27.883726,39.424294 27.5459779,39.5948375 C27.2082297,39.7653811 27.147698,40.5237947 27.5459779,41.1790118 Z"/>
              <polygon fill="#17CBC8" points="3.859 30.926 5.327 31.742 5.327 30.152 3.859 29.342"/>
              <polygon fill="#00DBB3" points="21.919 36.587 21.919 38.262 25.419 40.017 25.419 38.51"/>
              <polygon fill="#BAE1FE" points="21.919 39.31 21.919 40.986 29.661 45.215 29.661 43.708"/>
              <polygon fill="#018FFA" points="32.611 40.075 32.611 49.378 69.316 27.434 69.316 18.764"/>
            </g>
            <g transform="translate(4.876 74.963)">
              <polygon fill="#088DF6" points=".128 12.822 28.011 28.524 28.011 19.239 .483 3.547"/>
              <polygon fill="#0085E8" points="28.015 19.217 28.015 28.52 53.004 13.58 60.626 9.023 60.666 .26 53.015 4.702"/>
            </g>
            <g transform="translate(.28 51.74)">
              <polygon fill="#B6E2FF" points=".075 21.543 32.591 40.108 69.275 18.797 36.865 .093"/>
              <polygon fill="#7BB8FF" points=".049 21.539 .049 31.049 32.607 49.382 32.607 40.098"/>
              <path fill="#007FE2" d="M8.10153341,34.8153755 L8.10153341,26.8675648 L9.59198604,27.7109748 L9.53791757,35.6277604 L8.10153341,34.8153755 Z M19.4444444,41.2514279 L19.4444444,33.3036172 L20.9348971,34.1470273 L20.8808286,42.0638129 L19.4444444,41.2514279 Z M16.6161616,39.6848589 L16.6161616,31.7370482 L18.1066143,32.5804582 L18.0525458,40.4972439 L16.6161616,39.6848589 Z M13.7878788,38.0741843 L13.7878788,30.1263736 L15.2783314,30.9697836 L15.224263,38.8865692 L13.7878788,38.0741843 Z M10.959596,36.474385 L10.959596,28.5265743 L12.4500486,29.3699844 L12.3959801,37.28677 L10.959596,36.474385 Z" opacity=".66"/>
              <polygon fill="#A8E5FF" points="3.859 28.452 5.325 29.279 5.325 27.711 3.859 26.868"/>
              <path fill="#0282E3" d="M27.5459779,41.1790118 C27.9442577,41.834229 28.6776577,42.1756144 29.0120813,42.0067496 C29.3465049,41.8378848 29.4663641,41.1860619 29.0120813,40.4387133 C28.5577984,39.6913647 27.883726,39.424294 27.5459779,39.5948375 C27.2082297,39.7653811 27.147698,40.5237947 27.5459779,41.1790118 Z"/>
              <polygon fill="#17CBC8" points="3.859 30.926 5.327 31.742 5.327 30.152 3.859 29.342"/>
              <polygon fill="#00DBB3" points="21.919 36.587 21.919 38.262 25.419 40.017 25.419 38.51"/>
              <polygon fill="#BAE1FE" points="21.919 39.31 21.919 40.986 29.661 45.215 29.661 43.708"/>
              <polygon fill="#018FFA" points="32.611 40.075 32.611 49.378 69.316 27.434 69.316 18.764"/>
            </g>
            <g transform="translate(4.876 61.175)">
              <polygon fill="#088DF6" points=".128 12.822 28.011 28.524 28.011 19.239 .483 3.547"/>
              <polygon fill="#0085E8" points="28.015 19.217 28.015 28.52 53.004 13.58 60.626 9.023 60.666 .26 53.015 4.702"/>
            </g>
            <g transform="translate(.28 38.305)">
              <polygon fill="#B6E2FF" points=".075 21.543 32.591 40.108 69.275 18.797 36.865 .093"/>
              <polygon fill="#7BB8FF" points=".049 21.539 .049 31.049 32.607 49.382 32.607 40.098"/>
              <path fill="#007FE2" d="M8.10153341,34.8153755 L8.10153341,26.8675648 L9.59198604,27.7109748 L9.53791757,35.6277604 L8.10153341,34.8153755 Z M19.4444444,41.2514279 L19.4444444,33.3036172 L20.9348971,34.1470273 L20.8808286,42.0638129 L19.4444444,41.2514279 Z M16.6161616,39.6848589 L16.6161616,31.7370482 L18.1066143,32.5804582 L18.0525458,40.4972439 L16.6161616,39.6848589 Z M13.7878788,38.0741843 L13.7878788,30.1263736 L15.2783314,30.9697836 L15.224263,38.8865692 L13.7878788,38.0741843 Z M10.959596,36.474385 L10.959596,28.5265743 L12.4500486,29.3699844 L12.3959801,37.28677 L10.959596,36.474385 Z" opacity=".66"/>
              <polygon fill="#A8E5FF" points="3.859 28.452 5.325 29.279 5.325 27.711 3.859 26.868"/>
              <path fill="#0282E3" d="M27.5459779,41.1790118 C27.9442577,41.834229 28.6776577,42.1756144 29.0120813,42.0067496 C29.3465049,41.8378848 29.4663641,41.1860619 29.0120813,40.4387133 C28.5577984,39.6913647 27.883726,39.424294 27.5459779,39.5948375 C27.2082297,39.7653811 27.147698,40.5237947 27.5459779,41.1790118 Z"/>
              <polygon fill="#17CBC8" points="3.859 30.926 5.327 31.742 5.327 30.152 3.859 29.342"/>
              <polygon fill="#00DBB3" points="21.919 36.587 21.919 38.262 25.419 40.017 25.419 38.51"/>
              <polygon fill="#BAE1FE" points="21.919 39.31 21.919 40.986 29.661 45.215 29.661 43.708"/>
              <polygon fill="#018FFA" points="32.611 40.075 32.611 49.378 69.316 27.434 69.316 18.764"/>
            </g>
            <g transform="translate(4.876 48.175)">
              <polygon fill="#088DF6" points=".128 12.822 28.011 28.524 28.011 19.239 .483 3.547"/>
              <polygon fill="#0085E8" points="28.015 19.217 28.015 28.52 53.004 13.58 60.626 9.023 60.666 .26 53.015 4.702"/>
            </g>
            <g transform="translate(.28 25.305)">
              <polygon fill="#B6E2FF" points=".075 21.543 32.591 40.108 69.275 18.797 36.865 .093"/>
              <polygon fill="#7BB8FF" points=".049 21.539 .049 31.049 32.607 49.382 32.607 40.098"/>
              <path fill="#007FE2" d="M8.10153341,34.8153755 L8.10153341,26.8675648 L9.59198604,27.7109748 L9.53791757,35.6277604 L8.10153341,34.8153755 Z M19.4444444,41.2514279 L19.4444444,33.3036172 L20.9348971,34.1470273 L20.8808286,42.0638129 L19.4444444,41.2514279 Z M16.6161616,39.6848589 L16.6161616,31.7370482 L18.1066143,32.5804582 L18.0525458,40.4972439 L16.6161616,39.6848589 Z M13.7878788,38.0741843 L13.7878788,30.1263736 L15.2783314,30.9697836 L15.224263,38.8865692 L13.7878788,38.0741843 Z M10.959596,36.474385 L10.959596,28.5265743 L12.4500486,29.3699844 L12.3959801,37.28677 L10.959596,36.474385 Z" opacity=".66"/>
              <polygon fill="#A8E5FF" points="3.859 28.452 5.325 29.279 5.325 27.711 3.859 26.868"/>
              <path fill="#0282E3" d="M27.5459779,41.1790118 C27.9442577,41.834229 28.6776577,42.1756144 29.0120813,42.0067496 C29.3465049,41.8378848 29.4663641,41.1860619 29.0120813,40.4387133 C28.5577984,39.6913647 27.883726,39.424294 27.5459779,39.5948375 C27.2082297,39.7653811 27.147698,40.5237947 27.5459779,41.1790118 Z"/>
              <polygon fill="#17CBC8" points="3.859 30.926 5.327 31.742 5.327 30.152 3.859 29.342"/>
              <polygon fill="#00DBB3" points="21.919 36.587 21.919 38.262 25.419 40.017 25.419 38.51"/>
              <polygon fill="#BAE1FE" points="21.919 39.31 21.919 40.986 29.661 45.215 29.661 43.708"/>
              <polygon fill="#018FFA" points="32.611 40.075 32.611 49.378 69.316 27.434 69.316 18.764"/>
            </g>
            <g transform="translate(.28 13.608)">
              <polygon fill="#B6E2FF" points=".075 21.543 32.591 40.108 69.275 18.797 36.865 .093"/>
              <polygon fill="#7BB8FF" points=".049 21.539 .049 31.049 32.607 49.382 32.607 40.098"/>
              <path fill="#007FE2" d="M8.10153341,34.8153755 L8.10153341,26.8675648 L9.59198604,27.7109748 L9.53791757,35.6277604 L8.10153341,34.8153755 Z M19.4444444,41.2514279 L19.4444444,33.3036172 L20.9348971,34.1470273 L20.8808286,42.0638129 L19.4444444,41.2514279 Z M16.6161616,39.6848589 L16.6161616,31.7370482 L18.1066143,32.5804582 L18.0525458,40.4972439 L16.6161616,39.6848589 Z M13.7878788,38.0741843 L13.7878788,30.1263736 L15.2783314,30.9697836 L15.224263,38.8865692 L13.7878788,38.0741843 Z M10.959596,36.474385 L10.959596,28.5265743 L12.4500486,29.3699844 L12.3959801,37.28677 L10.959596,36.474385 Z" opacity=".66"/>
              <polygon fill="#A8E5FF" points="3.859 28.452 5.325 29.279 5.325 27.711 3.859 26.868"/>
              <path fill="#0282E3" d="M27.5459779,41.1790118 C27.9442577,41.834229 28.6776577,42.1756144 29.0120813,42.0067496 C29.3465049,41.8378848 29.4663641,41.1860619 29.0120813,40.4387133 C28.5577984,39.6913647 27.883726,39.424294 27.5459779,39.5948375 C27.2082297,39.7653811 27.147698,40.5237947 27.5459779,41.1790118 Z"/>
              <polygon fill="#17CBC8" points="3.859 30.926 5.327 31.742 5.327 30.152 3.859 29.342"/>
              <polygon fill="#00DBB3" points="21.919 36.587 21.919 38.262 25.419 40.017 25.419 38.51"/>
              <polygon fill="#BAE1FE" points="21.919 39.31 21.919 40.986 29.661 45.215 29.661 43.708"/>
              <polygon fill="#018FFA" points="32.611 40.075 32.611 49.378 69.316 27.434 69.316 18.764"/>
            </g>
            <g transform="translate(4.876 23.397)">
              <polygon fill="#088DF6" points=".128 12.822 28.011 28.524 28.011 19.239 .483 3.547"/>
              <polygon fill="#0085E8" points="28.015 19.217 28.015 28.52 53.004 13.58 60.626 9.023 60.666 .26 53.015 4.702"/>
            </g>
            <g transform="translate(.28 .174)">
              <polygon fill="#B6E2FF" points=".075 21.543 32.591 40.108 69.275 18.797 36.865 .093"/>
              <polygon fill="#7BB8FF" points=".049 21.539 .049 31.049 32.607 49.382 32.607 40.098"/>
              <path fill="#007FE2" d="M8.10153341,34.8153755 L8.10153341,26.8675648 L9.59198604,27.7109748 L9.53791757,35.6277604 L8.10153341,34.8153755 Z M19.4444444,41.2514279 L19.4444444,33.3036172 L20.9348971,34.1470273 L20.8808286,42.0638129 L19.4444444,41.2514279 Z M16.6161616,39.6848589 L16.6161616,31.7370482 L18.1066143,32.5804582 L18.0525458,40.4972439 L16.6161616,39.6848589 Z M13.7878788,38.0741843 L13.7878788,30.1263736 L15.2783314,30.9697836 L15.224263,38.8865692 L13.7878788,38.0741843 Z M10.959596,36.474385 L10.959596,28.5265743 L12.4500486,29.3699844 L12.3959801,37.28677 L10.959596,36.474385 Z" opacity=".66"/>
              <polygon fill="#A8E5FF" points="3.859 28.452 5.325 29.279 5.325 27.711 3.859 26.868"/>
              <path fill="#0282E3" d="M27.5459779,41.1790118 C27.9442577,41.834229 28.6776577,42.1756144 29.0120813,42.0067496 C29.3465049,41.8378848 29.4663641,41.1860619 29.0120813,40.4387133 C28.5577984,39.6913647 27.883726,39.424294 27.5459779,39.5948375 C27.2082297,39.7653811 27.147698,40.5237947 27.5459779,41.1790118 Z"/>
              <polygon fill="#17CBC8" points="3.859 30.926 5.327 31.742 5.327 30.152 3.859 29.342"/>
              <polygon fill="#00DBB3" points="21.919 36.587 21.919 38.262 25.419 40.017 25.419 38.51"/>
              <polygon fill="#BAE1FE" points="21.919 39.31 21.919 40.986 29.661 45.215 29.661 43.708"/>
              <polygon fill="#018FFA" points="32.611 40.075 32.611 49.378 69.316 27.434 69.316 18.764"/>
            </g>
          </g>
        </g>
        <path stroke="#0AD4B6" stroke-width="2" d="M140.3401,66.565918 C140.3401,66.565918 133.836438,62.5822754 133.836438,62.5822754 M88.6870243,37.1962891 L84.8178837,34.3976928 M15.2316842,34.1188472 L2.91944439,42.7243318 C0.656068564,44.3062897 0.103670239,47.4235487 1.6856282,49.6869245 C2.07123307,50.2386261 2.56426226,50.7067906 3.13516272,51.0633554 L149.586393,138.531761 C151.195119,139.536516 153.233851,139.544508 154.850405,138.552395 L198.273248,111.902899 C200.626784,110.458485 201.363773,107.379639 199.919359,105.026103 C199.521075,104.377137 198.979832,103.827708 198.336916,103.419728 L182.892374,95.3497988"/>
        <path stroke="#0AD4B6" stroke-width="2" d="M15.2316842,51.1188472 L2.91944439,59.7243318 C0.656068564,61.3062897 0.103670239,64.4235487 1.6856282,66.6869245 C2.07123307,67.2386261 2.56426226,67.7067906 3.13516272,68.0633554 L149.586393,159.531761 C151.195119,160.536516 153.233851,160.544508 154.850405,159.552395 L198.273248,132.902899 C200.626784,131.458485 201.363773,128.379639 199.919359,126.026103 C199.521075,125.377137 198.979832,124.827708 198.336916,124.419728 L181.405774,114.755371"/>
        <path stroke="#0AD4B6" stroke-width="2" d="M15.2316842,69.1188472 L2.91944439,77.7243318 C0.656068564,79.3062897 0.103670239,82.4235487 1.6856282,84.6869245 C2.07123307,85.2386261 2.56426226,85.7067906 3.13516272,86.0633554 L149.586393,177.531761 C151.195119,178.536516 153.233851,178.544508 154.850405,177.552395 L198.273248,150.902899 C200.626784,149.458485 201.363773,146.379639 199.919359,144.026103 C199.521075,143.377137 198.979832,142.827708 198.336916,142.419728 L182.908216,134.255859"/>
      </g>
      <g transform="translate(271.668 287.005)">
        <path fill="#00C2B7" d="M37.6037263,23.4441297 L62.7750231,20.405217 C63.6435979,20.3003545 64.5225994,20.4831509 65.2773558,20.9255999 L78.3817372,28.6075749 C80.0246228,29.5706578 80.7607369,31.558447 80.1413788,33.3592794 L76.2844861,44.5734996 C75.7811899,46.0368732 74.4789506,47.0786537 72.9407876,47.2484304 L47.9421675,50.0076849 C47.1112702,50.0993962 46.2725186,49.9284841 45.5437575,49.5189617 L32.2998901,42.0766593 C30.617781,41.1314094 29.8502075,39.1200739 30.4749015,37.294493 L34.2986034,26.1202584 C34.7955708,24.6679405 36.079799,23.6281123 37.6037263,23.4441297 Z" filter="url(#544*500-a)" opacity=".5"/>
        <path fill="#D8D8D8" d="M14.4615833,10.3167767 L72.8700937,3.26515894 C73.7386685,3.16029653 74.6176699,3.3430929 75.3724263,3.78554185 L108.064722,22.9502314 C109.707608,23.9133143 110.443722,25.9011035 109.824364,27.7019359 L99.3824525,58.0626184 C98.8791563,59.525992 97.576917,60.5677726 96.038754,60.7375493 L38.0399435,67.1392416 C37.2090462,67.230953 36.3702946,67.0600409 35.6415335,66.6505185 L2.60871202,48.0879462 C0.92660295,47.1426963 0.159029395,45.1313608 0.783723398,43.3057798 L11.1564604,12.9929055 C11.6534279,11.5405876 12.9376561,10.5007594 14.4615833,10.3167767 Z"/>
        <path fill="#FFF" d="M14.4615833,7.31677674 L72.8700937,0.265158945 C73.7386685,0.16029653 74.6176699,0.343092903 75.3724263,0.785541849 L108.064722,19.9502314 C109.707608,20.9133143 110.443722,22.9011035 109.824364,24.7019359 L99.3824525,55.0626184 C98.8791563,56.525992 97.576917,57.5677726 96.038754,57.7375493 L38.0399435,64.1392416 C37.2090462,64.230953 36.3702946,64.0600409 35.6415335,63.6505185 L2.60871202,45.0879462 C0.92660295,44.1426963 0.159029395,42.1313608 0.783723398,40.3057798 L11.1564604,9.99290551 C11.6534279,8.54058759 12.9376561,7.50075939 14.4615833,7.31677674 Z"/>
      </g>
      <g transform="translate(302.668 213.9)">
        <polygon fill="#38475A" points="1.248 109.061 23.8 96.061 23.8 57.115" transform="matrix(1 0 0 -1 0 166.176)"/>
        <polygon fill="#0D2154" points="23.439 109.061 45.991 96.061 45.991 57.115" transform="rotate(180 34.715 83.088)"/>
        <polygon fill="#8290AA" points="1.115 57.004 23.585 70.018 46.417 57.004 23.585 45.579"/>
        <polygon fill="#0D2154" points="22.8 64.343 45.352 51.343 22.902 .223"/>
        <polygon fill="#38475A" points="23.352 64.343 .8 51.343 23.249 .223"/>
      </g>
      <g transform="translate(473)">
        <g transform="translate(.818 18.106)">
          <path fill="#00C2B7" d="M14.2814478,7.4701462 L31.4692045,5.39508059 C32.3377793,5.29021817 33.2167807,5.47301455 33.9715371,5.91546349 L42.3709242,10.8393038 C44.0138098,11.8023867 44.7499239,13.7901759 44.1305658,15.5910084 L41.855387,22.2062705 C41.3520908,23.6696441 40.0498515,24.7114246 38.5116885,24.8812013 L21.4396758,26.7655464 C20.6087785,26.8572578 19.7700269,26.6863456 19.0412658,26.2768232 L10.5506822,21.5055968 C8.86857312,20.5603469 8.10099956,18.5490114 8.72569357,16.7234304 L10.9763249,10.146275 C11.4732923,8.69395705 12.7575205,7.65412885 14.2814478,7.4701462 Z" filter="url(#544*500-b)" opacity=".5"/>
          <path fill="#D8D8D8" d="M8.47267921,5.00413772 L35.7390347,1.71229007 C36.6076094,1.60742766 37.4866109,1.79022403 38.2413673,2.23267298 L52.580444,10.6384439 C54.2233296,11.6015269 54.9594436,13.589316 54.3400856,15.3901485 L50.068116,27.8112376 C49.5648197,29.2746112 48.2625804,30.3163918 46.7244175,30.4861684 L19.6456791,33.4750186 C18.8147818,33.5667299 17.9760302,33.3958178 17.2472691,32.9862954 L2.75603422,24.8430432 C1.07392515,23.8977933 0.306351599,21.8864578 0.931045602,20.0608769 L5.16755629,7.68026649 C5.66452373,6.22794857 6.94875193,5.18812037 8.47267921,5.00413772 Z"/>
          <path fill="#FFF" d="M8.47267921,3.50521172 L35.7390347,0.213364074 C36.6076094,0.108501659 37.4866109,0.291298032 38.2413673,0.733746978 L52.580444,9.13951793 C54.2233296,10.1026009 54.9594436,12.09039 54.3400856,13.8912225 L50.068116,26.3123116 C49.5648197,27.7756852 48.2625804,28.8174658 46.7244175,28.9872424 L19.6456791,31.9760926 C18.8147818,32.0678039 17.9760302,31.8968918 17.2472691,31.4873694 L2.75603422,23.3441172 C1.07392515,22.3988673 0.306351599,20.3875318 0.931045602,18.5619509 L5.16755629,6.18134049 C5.66452373,4.72902257 6.94875193,3.68919437 8.47267921,3.50521172 Z"/>
        </g>
        <path fill="#E19600" d="M5.32244944,20.5705457 C7.16450722,20.5705457 8.62688925,22.095634 8.62688925,23.9374735 C8.62688925,25.779313 7.16674478,27.3044013 5.32244944,27.3044013 C3.48039165,27.3044013 2.01800963,25.779313 2.01800963,23.9374735 C2.01800963,22.031618 3.47815409,20.5705457 5.32244944,20.5705457 Z M15.9333965,8.6889374 C19.6190947,8.6889374 22.6689438,11.7380225 22.6689438,15.4874093 C22.6689438,19.2367961 19.6822376,22.2858812 15.9333965,22.2858812 C12.2476982,22.2858812 9.26181059,19.2367961 9.26181059,15.4874093 C9.26181059,11.7380225 12.1843917,8.6889374 15.9333965,8.6889374 Z M25.9723467,1.89057464 C27.6244848,1.89057464 28.959053,3.22454254 28.959053,4.93965971 C28.959053,6.59179775 27.6250851,7.98874478 25.9723467,7.98874478 C24.3196083,7.98874478 22.9856404,6.65477689 22.9856404,4.93965971 C22.9212424,3.22443339 24.3196083,1.89057464 25.9723467,1.89057464 Z M29.9746324,15.487573 C32.7065843,15.487573 34.930992,17.7114896 34.930992,20.5071846 C34.930992,23.2391364 32.7070754,25.5267961 29.9746324,25.5267961 C27.2421894,25.5267961 25.0826709,23.3028796 25.0826709,20.5071846 C25.0826709,17.7114896 27.3065875,15.487573 29.9746324,15.487573 Z M39.1889053,29.6567319 C40.3326806,29.6567319 41.2847897,30.6092777 41.2847897,31.8173965 C41.2847897,33.0255152 40.332244,33.978061 39.1889053,33.978061 C38.04513,33.978061 37.0930209,33.0255152 37.0930209,31.8173965 C37.0286228,30.6106966 37.9825875,29.6567319 39.1889053,29.6567319 Z" transform="rotate(180 24.602 18.053)"/>
      </g>
      <g transform="matrix(-1 0 0 1 273.898 197.504)">
        <g transform="translate(0 8.36)">
          <path fill="#00C2B7" d="M7.95993861,2.28096665 L12.0486443,1.78734013 C12.9172191,1.68247772 13.7962205,1.86527409 14.5509769,2.30772304 L15.9273163,3.11455279 C17.115986,3.81136791 17.6485834,5.2495842 17.200462,6.55253251 L17.200462,6.55253251 C16.7300982,7.92015259 15.5130688,8.89376588 14.0755531,9.05243351 L9.98614733,9.50380686 C9.15524996,9.59551822 8.3164984,9.4246061 7.58773727,9.01508367 L6.14116992,8.20219486 C4.94577117,7.53044856 4.4002914,6.10108349 4.84423314,4.80372579 L4.84423314,4.80372579 C5.31271925,3.43464059 6.523348,2.45440521 7.95993861,2.28096665 Z" filter="url(#544*500-c)" opacity=".556"/>
          <polygon fill="#D8D8D8" points="3.164 1.919 14.415 .561 21.045 4.448 18.816 10.929 7.646 12.162 .947 8.398"/>
          <polygon fill="#FFF" points="3.164 1.377 14.415 .019 21.045 3.906 18.816 10.387 7.646 11.62 .947 7.856"/>
        </g>
        <path fill="#316CE4" d="M18.4338031,9.53324673 C18.0445976,9.44433112 17.9732521,9.51620901 17.4498746,9.41770968 C17.2645894,9.38310181 16.9824021,9.31122391 16.7704954,9.0450095 L16.7657035,9.0450095 C16.7975305,8.79781638 16.813536,8.54884275 16.8136221,8.29960915 C16.8161357,7.17920137 16.4897567,6.08269367 15.8749501,5.14603323 L15.8840014,5.13964408 C15.9745617,4.89304085 16.1302162,4.67556612 16.3344362,4.51031321 C16.7630414,4.19458292 16.8583462,4.22865836 17.1708819,3.97788439 C17.4120721,3.78514515 17.4903392,3.48006344 17.342324,3.29637549 C17.1943088,3.11268755 16.8807082,3.1190767 16.6395179,3.31181593 C16.3275146,3.56099262 16.3392281,3.66162167 15.935647,4.00929769 C15.7934885,4.13228875 15.5629468,4.30799026 15.2200627,4.30745783 L15.2126087,4.3143794 C14.2564993,3.3164174 12.9721022,2.69738071 11.5958197,2.57120744 L11.5958197,2.54671571 C11.4589521,2.32198181 11.3853672,2.06443456 11.3828481,1.80131536 C11.4030804,1.26888653 11.4893339,1.21564365 11.4893339,0.816322033 C11.4893339,0.507513315 11.2987244,0.257271768 11.0633908,0.257271768 C10.8280573,0.257271768 10.6374478,0.507513315 10.6374478,0.816322033 C10.6374478,1.21564365 10.7237013,1.26941896 10.7439336,1.80131536 C10.7513876,1.98926273 10.7439336,2.2805013 10.530962,2.54671571 L10.530962,2.57120744 C9.13934489,2.69931371 7.84231544,3.33088431 6.88329215,4.34738999 C6.63526184,4.31047822 6.40101939,4.20995757 6.20338054,4.055619 C5.7997995,3.70741055 5.81204536,3.60731393 5.49950964,3.35813724 C5.25831938,3.16593043 4.94365395,3.15847643 4.79723602,3.3426968 C4.65081809,3.52691717 4.72748784,3.83306375 4.9686781,4.0279327 C5.28068139,4.27710939 5.37651858,4.24090423 5.80512378,4.56036152 C5.95154171,4.66684729 6.16451324,4.84734066 6.24703971,5.15987638 C5.63607474,6.09351311 5.31146025,7.18543188 5.31315955,8.30120644 C5.31332983,8.56228808 5.33111786,8.82306069 5.36640243,9.08174709 C5.1848584,9.24813383 4.96384424,9.36542161 4.72429327,9.42250154 C4.20091574,9.52100087 4.12957028,9.44912298 3.74036481,9.53750616 C3.43901009,9.60246248 3.23668714,9.84365274 3.28993002,10.0731296 C3.3431729,10.3026064 3.62908718,10.432519 3.92884461,10.3638357 C4.31805008,10.2749201 4.35106067,10.1790829 4.86538691,10.0411838 C5.03736142,9.99486252 5.30091369,9.94108721 5.58842525,10.0598188 C6.01573831,11.381698 6.9058394,12.5049118 8.09510015,13.2229785 L8.066349,13.2762214 C8.09211779,13.5380958 8.04668134,13.8020687 7.93483908,14.0402567 C7.68512996,14.5109238 7.58450091,14.5194427 7.41146154,14.8814943 C7.27782191,15.1594221 7.34064851,15.467166 7.55255518,15.5699247 C7.76446185,15.6726835 8.04505184,15.5294601 8.17922391,15.2504674 C8.35226328,14.8905456 8.29795554,14.8053569 8.51039464,14.3165873 C8.5854671,14.1440803 8.71857431,13.8853199 9.02578574,13.7378372 L9.05027746,13.6819321 C10.3730829,14.1745475 11.830626,14.1648861 13.1467848,13.6547783 C13.3301516,13.7911687 13.4783595,13.9693102 13.579117,14.1744288 C13.7920886,14.6631984 13.7388457,14.7483871 13.9102878,15.1083089 C14.0444598,15.3862368 14.3250498,15.5289277 14.5369565,15.4277662 C14.7488632,15.3266048 14.8116898,15.0172636 14.6780501,14.7393358 C14.5044783,14.3794139 14.4038493,14.3666356 14.1546726,13.8980982 C14.0367268,13.6984238 13.9845725,13.4667097 14.0055925,13.2357568 C15.2004252,12.5227539 16.0971466,11.4017576 16.53037,10.0795187 L16.5330322,10.0795187 C16.7825253,9.99571994 17.0500799,9.98118293 17.3071837,10.0374568 C17.8215099,10.1758883 17.8545205,10.2717255 18.243726,10.3601087 C18.5445482,10.428792 18.8293977,10.2988794 18.8826405,10.0694026 C18.9358834,9.83992574 18.7346253,9.60139762 18.4338031,9.53324673 Z M14.2941689,5.05232575 C13.4827474,5.66994319 12.5717617,6.28862548 12.0925758,6.49361058 C12.0125622,6.44801997 11.9296855,6.40764871 11.8444639,6.37274924 C11.7379782,5.96331147 11.6357518,4.80953821 11.601144,3.75053728 C12.6195179,3.86979571 13.5681154,4.32834073 14.2941689,5.05232575 Z M11.4004183,7.59520582 L11.8359451,8.11645363 L11.7023054,8.78465181 L11.0969339,9.0929281 L10.4777191,8.81233811 L10.3116013,8.15372365 L10.7231688,7.61277597 L11.4004183,7.59520582 Z M10.5341566,3.74734271 C10.5101973,4.77439791 10.4239438,5.877058 10.2833826,6.37061952 C10.1848039,6.41098092 10.0895592,6.45904832 9.9985332,6.5143753 C9.56673342,6.30140377 8.63338569,5.67739719 7.81823717,5.06723376 C8.54786446,4.33263283 9.50558566,3.86794748 10.5341566,3.74947242 L10.5341566,3.74734271 Z M6.48450296,8.29694701 C6.48288741,7.45113417 6.71664479,6.62155357 7.15962271,5.9010173 C7.93803365,6.54951561 8.74519575,7.29864296 9.0657179,7.72831302 C9.04277965,7.81161747 9.0249983,7.89625668 9.01247502,7.98174914 C8.57588338,8.1877991 7.50037716,8.52908597 6.51325412,8.78624909 C6.49512541,8.62376298 6.48552851,8.4604381 6.48450296,8.29694701 Z M8.59984268,12.1559911 C7.74036809,11.6067116 7.08841556,10.7867127 6.74699037,9.82555016 C7.72399726,9.6232272 8.80056835,9.45977156 9.35003489,9.4698877 C9.39874603,9.54179841 9.4521025,9.61045041 9.50976354,9.67540523 C9.45705309,10.0443784 9.04016132,11.1555574 8.59984268,12.1559911 Z M11.0633908,12.8758349 C10.5523008,12.8759194 10.0448028,12.7904366 9.56194156,12.6229312 C10.0411275,11.6906483 10.6049696,10.7226927 10.9377376,10.36916 C10.9792671,10.3718221 11.021329,10.3734194 11.0633908,10.3734194 C11.1304769,10.3734194 11.1970305,10.3702248 11.2630517,10.3638357 C11.5739901,10.7785978 12.1325079,11.7337751 12.588267,12.6149448 C12.0984512,12.7877665 11.582801,12.8759888 11.0633908,12.8758349 Z M13.5407822,12.1469398 C13.1286823,11.2466027 12.7288282,10.2371176 12.606902,9.68552138 C12.6672034,9.61824351 12.7230496,9.54710181 12.7740847,9.47254985 C13.22026,9.46509584 14.3553983,9.62375963 15.3803237,9.82342044 C15.0408084,10.7799571 14.3939197,11.5970403 13.5407822,12.1469398 Z M15.6172546,8.78465181 C14.6274694,8.53547512 13.5732603,8.20803139 13.1148391,7.96151685 C13.1010797,7.87717297 13.0820526,7.79377342 13.0578692,7.71180773 C13.3203566,7.36466414 14.1573347,6.57028033 14.9591725,5.88770658 C15.4074446,6.61121455 15.6440867,7.44582518 15.6422787,8.29694701 C15.6422115,8.4598622 15.633503,8.62265916 15.6161897,8.78465181 L15.6172546,8.78465181 Z"/>
      </g>
      <g transform="translate(9 79)">
        <g transform="translate(.06 14.79)">
          <path fill="#00C2B7" d="M11.713206,4.82834315 L23.4361793,3.41303695 C24.3047541,3.30817453 25.1837555,3.4909709 25.9385119,3.93341985 L31.1173007,6.9692996 C32.7601863,7.93238253 33.4963004,9.92017172 32.8769424,11.7210041 L31.6844566,15.1882506 C31.1811604,16.6516242 29.8789211,17.6934047 28.3407581,17.8631814 L16.6945581,19.1486455 C15.8636608,19.2403569 15.0249092,19.0694448 14.2961481,18.6599223 L9.05921718,15.7170642 C7.37710811,14.7718143 6.60953456,12.7604788 7.23422856,10.9348978 L8.40808312,7.50447191 C8.90505057,6.052154 10.1892788,5.0123258 11.713206,4.82834315 Z" filter="url(#544*500-d)" opacity=".5"/>
          <path fill="#D8D8D8" d="M6.81971595,3.53782654 L25.4907029,1.2836916 C26.3592777,1.17882918 27.2382792,1.36162556 27.9930356,1.8040745 L37.2665449,7.24033773 C38.9094305,8.20342067 39.6455446,10.1912098 39.0261865,11.9920423 L36.4571474,19.4617266 C35.9538511,20.9251002 34.6516118,21.9668808 33.1134489,22.1366574 L14.5687832,24.1835485 C13.7378858,24.2752598 12.8991343,24.1043477 12.1703731,23.6948253 L2.79669579,18.4273502 C1.11458672,17.4821003 0.34701316,15.4707648 0.971707163,13.6451839 L3.51459303,6.21395531 C4.01156048,4.76163739 5.29578868,3.72180919 6.81971595,3.53782654 Z"/>
          <path fill="#FFF" d="M6.81971595,2.45320341 L25.4907029,0.199068467 C26.3592777,0.0942060525 27.2382792,0.277002425 27.9930356,0.719451371 L37.2665449,6.1557146 C38.9094305,7.11879754 39.6455446,9.10658672 39.0261865,10.9074191 L36.4571474,18.3771035 C35.9538511,19.8404771 34.6516118,20.8822576 33.1134489,21.0520343 L14.5687832,23.0989253 C13.7378858,23.1906367 12.8991343,23.0197246 12.1703731,22.6102021 L2.79669579,17.3427271 C1.11458672,16.3974772 0.34701316,14.3861417 0.971707163,12.5605608 L3.51459303,5.12933218 C4.01156048,3.67701426 5.29578868,2.63718606 6.81971595,2.45320341 Z"/>
        </g>
        <g transform="translate(10.577 2.79)">
          <use fill="#000" filter="url(#544*500-e)" xlink:href="#544*500-f"/>
          <use fill="#E19600" stroke="#E19600" stroke-width="2" xlink:href="#544*500-f"/>
          <path stroke="#FFF" stroke-linejoin="square" d="M10.2046623,23.479947 C10.24081,23.479947 11.0993671,23.0059505 12.078041,22.4025816 C12.172667,22.3441681 12.172667,22.3441681 12.2671316,22.2855716 C12.7116983,22.0094921 13.1780028,21.7133828 13.637357,21.4172346 C13.9129613,21.239551 14.1247982,21.1014732 14.2249112,21.0363445 C18.3831181,18.0122523 19.457298,16.6178806 19.457298,13.4246623 L19.457298,4.23531126 C19.457298,4.18304152 19.3945913,4.1098593 19.38956,4.1055541 C17.2083898,3.80790216 14.0195056,2.70164015 9.99040894,0.525436228 C9.97092404,0.512438953 10.002028,0.512438953 9.94006183,0.550815465 C5.88372136,2.71075175 2.71976663,3.81402116 0.613667748,4.10046639 C0.544764357,4.11422487 0.515629139,4.15130983 0.515629139,4.23531126 L0.515629139,13.4246358 C0.515629139,16.7388024 1.82531554,18.4909977 5.84793233,21.2930288 L6.52473232,21.7239035 C7.19453454,22.1267728 9.95428124,23.479947 10.2046623,23.479947 Z"/>
          <path fill="#FFF" d="M5.18323179,16.3221457 C6.93043709,16.0540927 8.35753642,15.6086887 9.46437086,14.9856159 C8.55592053,14.5610066 7.59525828,14.1224371 6.58243709,13.6699338 C6.91303311,13.1757616 7.23846358,12.6605828 7.55872848,12.1245563 L4.81777483,12.1245563 L4.81777483,11.3518675 L8.01295364,11.3518675 C8.36447682,10.7357881 8.71255629,10.0954172 9.05713907,9.43056954 L9.88203974,9.77515232 C9.58303041,10.301906 9.28195082,10.8274818 8.97880795,11.3518675 L15.176,11.3518675 L15.176,12.1245563 L12.9362384,12.1245563 C12.5881325,13.1791788 11.9877351,14.0806887 11.1350464,14.8289801 C12.2311857,15.3230975 13.3241094,15.8243177 14.4137483,16.3326093 L13.9021192,17.167947 C12.8404768,16.6110464 11.6657748,16.028 10.3780132,15.4189669 C9.16675497,16.233404 7.5813245,16.8198675 5.62177483,17.1784106 C5.49650331,16.9138278 5.35030464,16.6283974 5.18323179,16.3221457 Z M5.32943046,8.43862252 L10.033457,8.43862252 C9.76890066,8.05578808 9.46439735,7.66251656 9.11981457,7.25870199 L9.81939073,6.78882119 C10.244,7.2482649 10.6025166,7.69033113 10.8949139,8.1149404 L10.414596,8.43864901 L14.6852715,8.43864901 L14.6852715,10.422596 L13.8394702,10.422596 L13.8394702,9.21133775 L6.16476821,9.21133775 L6.16476821,10.422596 L5.32943046,10.422596 L5.32943046,8.43862252 Z M7.78323179,13.3566887 C8.61752925,13.7148029 9.44940681,14.0785285 10.2788079,14.4478411 C11.110649,13.8144106 11.6936689,13.04 12.0278146,12.1245563 L8.52460927,12.1245563 C8.27955217,12.5365083 8.03242321,12.9472243 7.78323179,13.3566887 Z"/>
        </g>
      </g>
      <g transform="translate(116.022 206.134)">
        <path fill="url(#544*500-g)" d="M3.58948656,53.2831489 L57.2759342,84.3057092 C59.1171696,85.3442015 63.8060434,85.1250651 65.5549285,84.2973893 L127.766357,48.5021973 C130.848389,46.1401367 130.848389,40.1833496 130.107422,37.1843144 C130.055582,36.9744944 129.712975,36.4030185 129.572021,36.2104492 L0.816650391,42.0654297 L0.595777014,47.8595593 C0.511033438,50.0826216 1.66327442,52.1700927 3.58948656,53.2831489 Z"/>
        <path fill="#FFF" d="M61.0546627,2.87620325 L4.73066645,36.3675763 C0.933040281,38.6257207 -0.3149563,43.5348927 1.94318807,47.3325188 C2.62795628,48.4841253 3.59098957,49.4453063 4.74391225,50.1278562 L55.5214544,80.1890254 C59.2699509,82.4081991 63.9266867,82.4216903 67.6879787,80.2242736 L126.405689,45.9202945 C130.220633,43.6915329 131.506489,38.792141 129.277727,34.9771964 C128.608633,33.8319157 127.665271,32.870972 126.532539,32.1808458 L78.5882761,2.9704043 C73.212031,-0.305117791 66.4657925,-0.341362615 61.0546627,2.87620325 Z"/>
        <path fill="url(#544*500-h)" d="M76.3633939,9.10878936 L118.503016,33.837599 C120.884643,35.2352098 121.682345,38.298887 120.284734,40.6805136 C119.849292,41.4225377 119.229747,42.0396475 118.486014,42.4721642 L71.7582341,69.6466206 C66.1955497,72.8815897 59.3290546,72.9009475 53.7482189,69.6973939 L11.6954265,45.5579309 C9.77950541,44.4581394 9.1179017,42.0134212 10.2176933,40.0975001 C10.5711689,39.4817185 11.0821819,38.9711213 11.6982511,38.618147 L63.3211351,9.04103089 C67.3662142,6.72341964 72.3426138,6.74927353 76.3633939,9.10878936 Z"/>
        <path fill="url(#544*500-i)" d="M65.5307054,10.5458477 L12.0150295,42.1711436 C11.064095,42.733102 10.7487676,43.9595441 11.310726,44.9104787 C11.4863706,45.2077008 11.7359635,45.4543942 12.0352177,45.6265539 L54.6174683,70.123944 C59.5702849,72.9732786 65.6666913,72.9651086 70.6118531,70.1025094 L118.824031,42.193991 C120.257965,41.3639314 120.747502,39.5286019 119.917443,38.0946677 C119.657455,37.6455377 119.285408,37.2715303 118.83765,37.0091872 L73.6449667,10.5306282 C71.1381236,9.06185961 68.0320209,9.0676856 65.5307054,10.5458477 Z"/>
        <g fill="url(#544*500-j)" transform="translate(20.684 7.454)">
          <path d="M5.88177074,33.6740737 L44.0142321,11.2662566 C47.1360095,9.43180339 51.0055704,9.42818749 54.1307707,11.2568032 L87.5007902,30.7822533 C89.4075138,31.8979145 90.0487966,34.3480416 88.9331354,36.2547652 C88.5791036,36.8598241 88.0722744,37.3612154 87.4634318,37.7086999 L51.7135328,58.1122265 C46.7441011,60.9484284 40.6383786,60.9150452 35.700257,58.0246735 L5.8877089,40.5748507 C3.98115025,39.4589075 3.3402298,37.0086856 4.45617301,35.102127 C4.80152513,34.5121023 5.29234126,34.0204407 5.88177074,33.6740737 Z" opacity=".357"/>
          <path d="M5.88177074,29.3123524 L44.0142321,6.90453538 C47.1360095,5.07008215 51.0055704,5.06646625 54.1307707,6.895082 L87.5007902,26.420532 C89.4075138,27.5361933 90.0487966,29.9863203 88.9331354,31.893044 C88.5791036,32.4981029 88.0722744,32.9994942 87.4634318,33.3469787 L51.7135328,53.7505052 C46.7441011,56.5867072 40.6383786,56.553324 35.700257,53.6629523 L5.8877089,36.2131295 C3.98115025,35.0971863 3.3402298,32.6469644 4.45617301,30.7404058 C4.80152513,30.150381 5.29234126,29.6587195 5.88177074,29.3123524 Z" opacity=".361"/>
          <path d="M5.88177074,24.8212196 L44.0142321,2.41340257 C47.1360095,0.578949347 51.0055704,0.575333442 54.1307707,2.40394919 L87.5007902,21.9293992 C89.4075138,23.0450605 90.0487966,25.4951875 88.9331354,27.4019112 C88.5791036,28.0069701 88.0722744,28.5083614 87.4634318,28.8558459 L51.7135328,49.2593724 C46.7441011,52.0955744 40.6383786,52.0621912 35.700257,49.1718195 L5.8877089,31.7219967 C3.98115025,30.6060535 3.3402298,28.1558316 4.45617301,26.2492729 C4.80152513,25.6592482 5.29234126,25.1675867 5.88177074,24.8212196 Z"/>
        </g>
        <path fill="#FFF" d="M67.4307551 12.2726776L68.1878562 11.8682014 71.718929 13.9667128 70.9984302 14.383946 67.4307551 12.2726776zM72.8701954 14.5666141L82.7323529 20.289087 82.0176839 20.7557937 72.1647627 14.9862249 72.8701954 14.5666141zM83.8151473 20.9108902L85.3708211 21.8185152 84.6160063 22.268304 83.1756488 21.354049 83.8151473 20.9108902zM85.9743804 22.173152L87.5661306 23.0627159 86.7877678 23.4911515 85.3002687 22.5932658 85.9743804 22.173152zM94.9342169 27.3005246L99.9802005 30.1889213 99.1779697 30.6565425 94.2292871 27.7413972 94.9342169 27.3005246zM100.960893 30.7821011L102.492973 31.7110793 101.749132 32.1563414 100.245584 31.2359593 100.960893 30.7821011zM66.0103791 13.0804867L67.4761135 13.9487432 66.7239507 14.4189707 65.3028431 13.523554 66.0103791 13.0804867zM68.2578142 14.3914905L77.5895712 19.754617 76.8374084 20.2248445 67.5502781 14.8345578 68.2578142 14.3914905zM78.9258604 20.5726227L83.2591869 23.0941742 82.447857 23.5439172 78.1865918 21.0113919 78.9258604 20.5726227zM83.9331157 23.4181757L85.4645557 24.293931 84.6232765 24.71848 83.2177608 23.8540186 83.9331157 23.4181757zM86.4980137 24.9272567L88.0317857 25.8268342 87.312087 26.2832988 85.8159918 25.3587558 86.4980137 24.9272567zM89.1096876 26.4263697L92.0866977 28.1308301 91.2704753 28.5739889 88.4429833 26.9063822 89.1096876 26.4263697zM92.8243659 28.5252926L94.3615672 29.4559626 93.6235332 29.9373468 92.1245573 29.0049393 92.8243659 28.5252926zM95.289951 30.0060703L97.8371081 31.4685582 97.0320424 31.9430838 94.5880848 30.4681589 95.289951 30.0060703zM98.8373703 32.0263476L100.371142 32.9191122 99.6198939 33.4199749 98.1266336 32.5081433 98.8373703 32.0263476zM68.5626116 17.0013354L78.4247691 22.7238083 77.7101001 23.190515 67.8571789 17.4209462 68.5626116 17.0013354zM81.6667965 24.6078732L83.2585468 25.4974372 82.480184 25.9258728 80.9926849 25.027987 81.6667965 24.6078732zM83.9807603 25.9175053L89.8571865 29.2969796 89.0804241 29.764738 83.2736815 26.3536683 83.9807603 25.9175053zM90.6266331 29.7352459L95.6726167 32.6236426 94.8703859 33.0912638 89.9217033 30.1761185 90.6266331 29.7352459zM96.653309 33.2168224L98.1853892 34.1458006 97.4415482 34.5910627 95.9379998 33.6706806 96.653309 33.2168224zM61.7027953 15.515208L63.1685297 16.3834645 62.4163669 16.853692 60.9952593 15.9582753 61.7027953 15.515208zM63.9502303 16.8262118L73.2819874 22.1893383 72.5298245 22.6595658 63.2426943 17.2692791 63.9502303 16.8262118zM74.6182766 23.007344L78.9516031 25.5288955 78.1402732 25.9786385 73.879008 23.4461132 74.6182766 23.007344zM79.6255319 25.852897L81.1569719 26.7286523 80.3156927 27.1532013 78.910177 26.2887399 79.6255319 25.852897zM82.1904299 27.3619779L83.7242019 28.2615555 83.0045032 28.71802 81.508408 27.7934771 82.1904299 27.3619779zM84.8021038 28.861091L87.7791138 30.5655514 86.9628915 31.0087101 84.1353994 29.3411035 84.8021038 28.861091zM90.9823672 32.4407915L93.5295242 33.9032795 92.7244586 34.3778051 90.280501 32.9028801 90.9823672 32.4407915zM94.5297865 34.4610688L96.0635585 35.3538335 95.3123101 35.8546962 93.8190498 34.9428646 94.5297865 34.4610688zM59.0028738 17.1421201L59.7599748 16.737644 63.2910477 18.8361554 62.5705488 19.2533885 59.0028738 17.1421201zM64.442314 19.4360567L74.3044715 25.1585296 73.5898026 25.6252363 63.7368813 19.8556675 64.442314 19.4360567zM75.3872659 25.7803327L76.9429398 26.6879578 76.188125 27.1377466 74.7477675 26.2234915 75.3872659 25.7803327zM77.546499 27.0425945L79.1382492 27.9321585 78.3598865 28.3605941 76.8723874 27.4627083 77.546499 27.0425945zM79.8604627 28.3522266L85.7368889 31.7317009 84.9601265 32.1994593 79.1533839 28.7883896 79.8604627 28.3522266zM86.5063355 32.1699672L91.5523191 35.0583638 90.7500883 35.5259851 85.8014058 32.6108398 86.5063355 32.1699672zM92.5330114 35.6515437L94.0650916 36.5805219 93.3212506 37.025784 91.8177023 36.1054019 92.5330114 35.6515437zM57.5824977 17.9499293L59.0482322 18.8181858 58.2960693 19.2884133 56.8749617 18.3929966 57.5824977 17.9499293zM59.8299328 19.260933L69.1616898 24.6240596 68.409527 25.0942871 59.1223968 19.7040004 59.8299328 19.260933zM70.497979 25.4420652L74.8313056 27.9636167 74.0199757 28.4133598 69.7587104 25.8808345 70.497979 25.4420652zM75.5052343 28.2876183L77.0366743 29.1633736 76.1953951 29.5879226 74.7898795 28.7234612 75.5052343 28.2876183zM78.0701323 29.7966992L79.6039043 30.6962768 78.8842057 31.1527413 77.3881104 30.2281983 78.0701323 29.7966992zM80.6818062 31.2958123L83.6588163 33.0002726 82.8425939 33.4434314 80.0151019 31.7758248 80.6818062 31.2958123zM84.3964845 33.3947352L85.9336858 34.3254052 85.1956518 34.8067894 83.6966759 33.8743819 84.3964845 33.3947352zM86.8620696 34.8755128L89.4092267 36.3380008 88.604161 36.8125264 86.1602034 35.3376014 86.8620696 34.8755128zM90.4094889 36.8957901L91.9432609 37.7885548 91.1920126 38.2894175 89.6987522 37.3775858 90.4094889 36.8957901zM54.69529 19.5768414L55.452391 19.1723653 58.9834638 21.2708767 58.262965 21.6881098 54.69529 19.5768414zM60.1347302 21.8707779L69.9968877 27.5932509 69.2822187 28.0599576 59.4292975 22.2903888 60.1347302 21.8707779zM71.0796821 28.215054L72.635356 29.1226791 71.8805412 29.5724678 70.4401837 28.6582128 71.0796821 28.215054zM73.2389152 29.4773158L74.8306654 30.3668798 74.0523027 30.7953154 72.5648035 29.8974296 73.2389152 29.4773158zM75.5528789 30.7869479L81.4293051 34.1664222 80.6525427 34.6341806 74.8458001 31.2231108 75.5528789 30.7869479zM82.1987517 34.6046885L87.2447353 37.4930851 86.4425045 37.9607063 81.493822 35.0455611 82.1987517 34.6046885zM88.2254276 38.0862649L89.7575078 39.0152432 89.0136668 39.4605053 87.5101185 38.5401232 88.2254276 38.0862649zM53.2749139 20.3846506L54.7406483 21.2529071 53.9884855 21.7231346 52.5673779 20.8277179 53.2749139 20.3846506zM55.522349 21.6956543L64.854106 27.0587809 64.1019432 27.5290084 54.814813 22.1387217 55.522349 21.6956543zM66.1903952 27.8767865L70.5237218 30.398338 69.7123919 30.8480811 65.4511266 28.3155558 66.1903952 27.8767865zM71.1976505 30.7223396L72.7290905 31.5980949 71.8878113 32.0226439 70.4822956 31.1581825 71.1976505 30.7223396zM73.7625485 32.2314205L75.2963205 33.1309981 74.5766219 33.5874626 73.0805266 32.6629196 73.7625485 32.2314205zM76.3742224 33.7305336L79.3512325 35.4349939 78.5350101 35.8781527 75.7075181 34.210546 76.3742224 33.7305336zM80.0889007 35.8294565L81.626102 36.7601265 80.888068 37.2415107 79.3890921 36.3091031 80.0889007 35.8294565zM47.9529849 24.2589977L48.7100859 23.8545216 52.2411588 25.953033 51.5206599 26.3702661 47.9529849 24.2589977zM53.3924251 26.5529343L63.2545826 32.2754072 62.5399136 32.7421139 52.6869924 26.9725451 53.3924251 26.5529343zM64.337377 32.8972103L65.8930509 33.8048354 65.1382361 34.2546242 63.6978786 33.3403691 64.337377 32.8972103zM46.5326088 25.0668069L47.9983432 25.9350634 47.2461804 26.4052909 45.8250728 25.5098742 46.5326088 25.0668069zM48.7800439 26.3778106L58.1118009 31.7409372 57.3596381 32.2111647 48.0725079 26.820878 48.7800439 26.3778106zM59.4480901 32.5589428L63.7814167 35.0804943 62.9700868 35.5302374 58.7088215 32.9977121 59.4480901 32.5589428zM64.4553454 35.4044959L65.9867854 36.2802512 65.1455062 36.7048002 63.7399905 35.8403388 64.4553454 35.4044959zM67.0202434 36.9135768L68.5540154 37.8131544 67.8343168 38.2696189 66.3382215 37.3450759 67.0202434 36.9135768zM69.6319173 38.4126899L72.6089274 40.1171502 71.792705 40.560309 68.965213 38.8927024 69.6319173 38.4126899zM73.3465956 40.5116128L74.8837969 41.4422828 74.1457629 41.923667 72.646787 40.9912595 73.3465956 40.5116128zM75.8121807 41.9923904L78.3593378 43.4548784 77.5542721 43.929404 75.1103145 42.454479 75.8121807 41.9923904zM79.3596 44.0126677L80.893372 44.9054324 80.1421237 45.4062951 78.6488633 44.4944634 79.3596 44.0126677zM43.645401 26.693719L44.4025021 26.2892429 47.9335749 28.3877543 47.2130761 28.8049874 43.645401 26.693719zM49.0848413 28.9876555L58.9469988 34.7101285 58.2323298 35.1768352 48.3794086 29.4072664 49.0848413 28.9876555zM60.0297932 35.3319316L61.5854671 36.2395567 60.8306522 36.6893454 59.3902948 35.7750904 60.0297932 35.3319316zM64.50299 37.9038255L70.3794162 41.2832998 69.6026538 41.7510582 63.7959112 38.3399884 64.50299 37.9038255zM71.1488628 41.7215661L76.1948464 44.6099627 75.3926156 45.0775839 70.4439331 42.1624387 71.1488628 41.7215661zM77.1755387 45.2031425L78.7076189 46.1321208 77.9637779 46.5773829 76.4602296 45.6570008 77.1755387 45.2031425zM42.225025 27.5015282L43.6907594 28.3697847 42.9385966 28.8400122 41.517489 27.9445955 42.225025 27.5015282zM44.4724601 28.8125319L53.8042171 34.1756585 53.0520543 34.645886 43.7649241 29.2555993 44.4724601 28.8125319zM55.1405063 34.9936641L59.4738328 37.5152156 58.6625029 37.9649587 54.4012377 35.4324334 55.1405063 34.9936641zM60.1477616 37.8392172L61.6792016 38.7149725 60.8379224 39.1395215 59.4324067 38.2750601 60.1477616 37.8392172zM62.7126596 39.3482981L64.2464316 40.2478757 63.526733 40.7043402 62.0306377 39.7797972 62.7126596 39.3482981zM65.3243335 40.8474112L68.3013436 42.5518715 67.4851212 42.9950303 64.6576292 41.3274236 65.3243335 40.8474112zM69.0390118 42.9463341L70.5762131 43.8770041 69.8381791 44.3583883 68.3392032 43.4259807 69.0390118 42.9463341zM71.5045969 44.4271117L74.051754 45.8895997 73.2466883 46.3641253 70.8027307 44.8892003 71.5045969 44.4271117zM39.5251035 29.1284403L40.2822045 28.7239642 43.8132774 30.8224755 43.0927786 31.2397087 39.5251035 29.1284403zM44.9645437 31.4223768L54.8267013 37.1448497 54.1120323 37.6115565 44.259111 31.8419877 44.9645437 31.4223768zM58.0687287 39.0289147L59.660479 39.9184787 58.8821162 40.3469143 57.3946171 39.4490285 58.0687287 39.0289147zM60.3826924 40.3385467L66.2591187 43.7180211 65.4823563 44.1857795 59.6756137 40.7747097 60.3826924 40.3385467zM67.0285652 44.1562874L72.0745489 47.044684 71.2723181 47.5123052 66.3236355 44.59716 67.0285652 44.1562874zM73.0552411 47.6378638L74.5873213 48.5668421 73.8434803 49.0121041 72.339932 48.0917221 73.0552411 47.6378638zM40.3521625 31.2472532L49.6839195 36.6103798 48.9317567 37.0806073 39.6446265 31.6903205 40.3521625 31.2472532zM51.0202088 37.4283854L55.3535353 39.9499369 54.5422054 40.39968 50.2809402 37.8671547 51.0202088 37.4283854zM56.027464 40.2739385L57.5589041 41.1496937 56.7176248 41.5742428 55.3121092 40.7097814 56.027464 40.2739385zM58.5923621 41.7830194L60.126134 42.682597 59.4064354 43.1390615 57.9103401 42.2145185 58.5923621 41.7830194zM64.9187143 45.3810553L66.4559156 46.3117254 65.7178815 46.7931096 64.2189056 45.860702 64.9187143 45.3810553zM67.3842994 46.861833L69.9314564 48.324321 69.1263907 48.7988466 66.6824332 47.3239216 67.3842994 46.861833zM70.9317186 48.8821103L72.4654906 49.774875 71.7142423 50.2757377 70.2209819 49.363906 70.9317186 48.8821103zM35.2175197 31.5631616L35.9746207 31.1586855 39.5056936 33.2571968 38.7851948 33.67443 35.2175197 31.5631616zM40.6569599 33.8570981L50.5191174 39.579571 49.8044485 40.0462778 39.9515272 34.2767089 40.6569599 33.8570981zM51.6019118 40.2013742L53.1575857 41.1089992 52.4027709 41.558788 50.9624134 40.644533 51.6019118 40.2013742zM53.7611449 41.463636L55.3528951 42.3532 54.5745324 42.7816356 53.0870333 41.8837498 53.7611449 41.463636zM56.0751086 42.773268L61.9515349 46.1527424 61.1747724 46.6205008 55.3680299 43.209431 56.0751086 42.773268zM62.7209814 46.5910087L67.766965 49.4794053 66.9647343 49.9470265 62.0160517 47.0318812 62.7209814 46.5910087zM68.7476573 50.0725851L70.2797375 51.0015633 69.5358965 51.4468254 68.0323482 50.5264434 68.7476573 50.0725851z"/>
      </g>
      <g transform="matrix(-1 0 0 1 117.75 180.005)">
        <path fill="#5F5F6B" d="M8.51947731 97.2367245L8.057751 102.484014C8.00841284 103.044717 8.19763047 103.600255 8.57896077 104.014272L13.1637568 108.992065C13.542437 109.403204 14.0758904 109.637115 14.6348489 109.637115L16.0143447 109.637115C16.5666295 109.637115 17.0143447 109.1894 17.0143447 108.637115 17.0143447 108.476709 16.9757574 108.318657 16.9018395 108.176297L13.0436472 100.745758 13.0436472 97.2367245 8.51947731 97.2367245zM21.8137207 94.0421143L21.237494 99.06593C21.1625503 99.719324 21.4136292 100.367802 21.9090361 100.800367L27.1445604 105.371768C27.5089338 105.689921 27.9762665 105.865234 28.4599908 105.865234L29.8154892 105.865234C30.367774 105.865234 30.8154892 105.417519 30.8154892 104.865234 30.8154892 104.685143 30.7668555 104.508394 30.6747241 104.353653L26.4710693 97.293335 25.2543945 94.0421143 21.8137207 94.0421143z"/>
        <path fill="#92A4D9" d="M8.17480469,47.7480469 C7.80078125,51.2848307 8.26774089,53.3251953 9.57568359,53.8691406 C10.8836263,54.4130859 10.4166667,68.9558919 8.17480469,97.4975586 L13.2128906,98.4267578 L16.7597656,52.546875 C18.3123372,52.6967773 19.4363607,52.6967773 20.1318359,52.546875 C20.8273112,52.3969727 21.9322917,56.8326823 23.4467773,65.8540039 L21.6074219,94.8745117 L25.9575195,94.8745117 L29.3014659,66.1210239 C29.3220756,65.9438074 29.3188802,65.7646299 29.2919646,65.5882609 L26.7330322,48.8204346 C22.9361296,46.8781264 19.6117074,45.7799412 16.7597656,45.5258789 C13.9078238,45.2718166 11.0461702,46.0125393 8.17480469,47.7480469 Z"/>
        <path fill="#232323" d="M17.2495117,17.8378906 C12.7101237,18.5966797 9.1031901,20.2854818 6.42871094,22.9042969 C3.75423177,25.523112 2.02252197,29.6514893 1.23358154,35.2894287 C5.82196127,35.8794916 8.38039226,36.2216954 8.90887451,36.31604 C10.198914,36.5463378 13.6266484,36.5463378 19.1920776,36.31604 C20.3451131,34.9483643 21.4763184,34.6061605 22.5856934,35.2894287 C24.2497559,36.3143311 22.3115234,40.5025635 20.1552734,39.8746338 C18.7177734,39.456014 14.5406901,39.2095744 7.62402344,39.1353149 L7.62402344,47.8339844 C20.9995117,49.4759115 27.8676758,49.4759115 28.2285156,47.8339844 C28.7582984,45.4233176 28.7582984,38.532367 28.2285156,27.1611328 C30.2696126,32.4615751 31.2901611,35.6786161 31.2901611,36.8122559 C31.2901611,37.1515362 32.9379898,36.6916505 36.2336471,35.432599 L36.2336345,35.4325662 C36.6702662,35.2657583 36.933094,34.818731 36.8665487,34.3560822 C35.7037413,26.2718008 33.376643,20.4224752 29.8852539,16.8081055 C28.2902353,15.156904 24.3189121,17.8931635 22.4858398,17.8378906 C20.9465,17.7914747 19.2010573,17.7914747 17.2495117,17.8378906 Z"/>
        <path fill="#FDC1BE" d="M16.7929688,10.3918457 C24.4394531,5.2652181 28.8633626,3.9835612 30.0646973,6.546875 C31.8666992,10.3918457 31.4118652,13.1818848 30.0646973,15.9824219 C29.1665853,17.8494466 27.0007324,18.604248 23.5671387,18.2468262 C23.5671387,18.5209147 23.5671387,19.1043294 23.5671387,19.9970703 C23.5671387,20.682091 21.8489969,20.8330072 19.4790039,19.59729 C18.9998989,19.3474841 18.3499966,18.7423816 17.5292969,17.7819824 L18.9436035,17.5007324 L18.9436035,13.1818848 C19.3894043,13.1818848 19.0008952,13.1818848 17.7780762,13.1818848 C16.5552572,13.1818848 16.226888,12.2518717 16.7929688,10.3918457 Z M1.35943604,34.9897461 C1.74682617,34.2920034 3.24801901,33.6258135 4.96704102,34.0187988 C5.76375402,34.2009352 7.0767423,34.9433669 8.90600586,36.2460937 L19.1767578,36.2460937 C19.8733724,35.2148437 20.8687337,34.7960612 22.1628418,34.9897461 C23.3689028,35.1702533 23.2424968,37.1309405 23.2353516,37.4916992 C23.2072515,38.9104574 22.049091,40.0459065 20.6300545,40.0459065 L18.6118293,40.0458984 C18.0358148,40.0458984 17.4620026,39.974801 16.9034051,39.8342251 C13.7108894,39.0307611 10.0405324,39.1013188 5.89233398,40.0458984 C-0.832275391,41.5771484 0.568877277,36.4136506 1.35943604,34.9897461 Z M32.0296631,36.6385498 L36.2084961,35.3620605 L36.8261678,38.2886269 C36.918886,38.7279315 36.7074467,39.1751785 36.30911,39.3823332 L34.2554384,40.450344 C34.186203,40.4863499 34.1129908,40.5141275 34.0372965,40.53311 C33.5015997,40.6674507 32.958427,40.3420873 32.8240863,39.8063905 L32.0296631,36.6385498 Z"/>
        <path fill="#3C3846" d="M16.7265625,10.5053711 C15.5876465,8.03377279 15.5876465,5.65681966 16.7265625,3.37451172 C17.7245173,1.37468015 18.0848389,1.01672363 18.4089355,0.753417969 C18.745127,0.480286136 19.3897993,0.141113281 20.9287109,0.141113281 C24.6293945,0.141113281 29.6464844,1.42578125 31.1967773,3.37451172 C32.230306,4.67366536 29.6057943,6.0094401 23.3232422,7.38183594 C22.559082,10.2067057 21.8984375,11.8626709 21.3413086,12.3497314 C20.5056152,13.0803223 21.7460938,8.26611328 19.2363281,9.38574219 C17.563151,10.1321615 16.7265625,10.5053711 16.7265625,10.5053711 Z"/>
        <g transform="translate(19.055 32.672)">
          <path fill="#A7B3C3" d="M1.48347756,15.1539943 L8.64990234,11.9418945 L7.49084473,22.293457 L1.23400981,16.8191248 C0.818360071,16.4554577 0.776219785,15.8236966 1.13988685,15.4080469 C1.23477461,15.2995958 1.35198038,15.2129333 1.48347756,15.1539943 Z"/>
          <path fill="#38475A" d="M7.47265625,22.3022461 L25.4287002,14.5019066 C25.7622512,14.3570077 25.9908456,14.0424524 26.025665,13.6804585 L27.1406266,2.08894213 C27.1935056,1.53919468 26.7907141,1.05066945 26.2409666,0.997790492 C26.0738089,0.981711969 25.9052937,1.0079881 25.7509665,1.07419492 L18.0073242,4.39624023 L9.26122133,8.1483441 C8.92318714,8.29336177 8.69205308,8.61224745 8.65941909,8.97862465 L7.47265625,22.3022461 Z"/>
        </g>
      </g>
      <g transform="translate(.455 180.005)">
        <path fill="#FDC2BC" d="M17.6171666,67.8550743 L24.9712771,66.156125 L23.0790515,102.857929 C23.0562808,103.299592 22.7461029,103.673847 22.3163406,103.778201 C21.779652,103.908519 21.2389365,103.57909 21.1086172,103.042402 C20.9463459,102.374118 20.8069292,101.593539 20.690367,100.700665 C20.0446105,95.7541289 19.5778451,81.0610285 20.1320537,78.658532 C20.501526,77.0568676 19.6632303,73.4557151 17.6171666,67.8550743 Z M28.0357121,64.0452052 L34.0548249,61.4030304 L35.6242826,92.3033472 C35.6392082,92.5972111 35.5239551,92.8827342 35.3092115,93.0838907 L34.0548249,94.2589109 C31.7816831,86.7870401 30.6451122,80.9118565 30.6451122,76.63336 C30.6451122,72.3548635 29.7753122,68.1588119 28.0357121,64.0452052 Z M19.0549789,20.6583001 L18.849326,8.28666518 L29.3271327,8.28666518 C30.3219092,12.152683 30.1640241,15.4094345 28.8534774,18.0569194 C27.5429306,20.7044044 26.9684662,23.5683293 27.1300841,26.6486942 L19.0549789,20.6583001 Z M4.46521035,25.0895137 C3.53964838,24.5033052 2.73434972,23.8554369 2.04931436,23.1459089 C1.02176133,22.0816169 0.492829436,20.3914992 0.738802505,20.2764577 C0.984775574,20.1614161 1.69089136,21.6547567 1.85295196,21.3573031 C2.08324308,20.9346161 1.11880711,19.4198171 1.45451062,19.1310948 C1.96490044,18.6921332 2.4428965,20.9700728 2.95004713,20.9071118 C3.39000307,20.8524927 2.37375221,18.218338 2.95004713,18.0993169 C3.52634204,17.9802959 4.13966161,20.605496 4.46521035,20.6412457 C4.78055256,20.6758745 3.95462997,17.581604 4.46521035,17.4710232 C4.80559726,17.3973026 5.34739618,18.5426655 6.0906071,20.9071118 C6.3905402,19.2758301 6.70917259,18.6838244 7.04650426,19.1310948 C7.27901278,19.4393794 6.92847002,20.98724 6.90959364,22.4791336 C6.90392022,22.9275329 6.94955709,23.5133899 7.04650426,24.2367045 L4.46521035,25.0895137 Z M45.8743416,30.3456619 L45.8743416,27.7631696 C46.549284,27.0065079 47.095047,26.5451828 47.5116306,26.3791942 C48.8976686,25.8269248 49.7696657,25.640173 50.1407978,25.7467591 C50.6792495,25.901398 50.4124136,26.471352 49.3402902,27.4566211 C50.8586271,27.3586142 51.6443755,27.4817096 51.6975352,27.8259072 C51.7772747,28.3422037 50.6897821,28.6598763 50.7582348,28.6825666 C51.2150726,28.8339967 52.1431223,28.9988319 52.226099,29.5038333 C52.3215089,30.0845043 50.9902663,29.79781 51.0969412,30.228118 C51.2199085,30.7241471 52.4054758,30.2308788 52.1785772,30.8646785 C52.0293371,31.2815535 51.3680698,31.0344363 51.0559864,31.4009091 C50.8363669,31.6588035 51.8051449,31.5740487 51.7858932,31.8449115 C51.7666415,32.1157744 50.248566,32.3215655 48.8867217,31.7436702 C47.9788255,31.3584067 46.9746988,30.8924039 45.8743416,30.3456619 Z"/>
        <path fill="#414079" d="M20.0456945 100.004088L19.7023217 103.906348C19.6529836 104.467052 19.8422012 105.02259 20.2235315 105.436607L23.54012 109.037484C23.9188002 109.448624 24.4522536 109.682535 25.0112121 109.682535L25.657172 109.682535C26.1681617 109.682535 26.5824007 109.268296 26.5824007 108.757306 26.5824007 108.608894 26.5466987 108.462659 26.4783076 108.330944L23.576788 102.742872 23.576788 100.004088 20.0456945 100.004088zM33.2670911 92.3371886L32.8436227 96.0291854C32.768679 96.6825795 33.0197579 97.3310578 33.5151648 97.7636226L37.303732 101.071612C37.6681054 101.389765 38.1354382 101.565079 38.6191624 101.565079L39.3771919 101.565079C39.8507051 101.565079 40.2345635 101.18122 40.2345635 100.707707 40.2345635 100.553302 40.1928663 100.401762 40.1138754 100.269092L36.9021299 94.8747512 35.9525209 92.3371886 33.2670911 92.3371886z"/>
        <path fill="#404040" d="M20.0710347,19.0052876 L16.8784019,18.3928982 C13.3430754,17.2519649 12.3540542,13.1633204 13.9113383,6.1269645 C14.7108886,2.51431537 19.5032359,0.723330137 22.1277023,0.723330137 C25.5709399,0.723330137 30.4629458,3.24861644 30.4629458,6.95281087 C30.4629458,10.4473997 28.2665246,11.0717643 23.8736821,8.82590472 L23.8736801,8.82590864 C23.4384067,8.60337327 22.9051474,8.77583148 22.682612,9.21110483 C22.6188378,9.33584566 22.5855834,9.47394282 22.5855834,9.61404077 L22.5855834,10.309995 C22.5855834,10.7760748 22.2636011,11.1803526 21.8093386,11.2846404 L20.0112854,11.6974209 C19.4729988,11.8209986 19.1368107,12.3575457 19.2603884,12.8958324 C19.2702987,12.9390002 19.283066,12.9814619 19.2986058,13.0229371 C20.1613896,15.3256737 20.7762896,16.8522563 21.1433058,17.6026848 C21.1433058,17.6026848 21.1433058,17.6026848 21.1433058,17.6026848 L21.1433058,17.6026848 C21.3827266,18.0922223 21.1799669,18.6831599 20.6904293,18.9225807 C20.4983748,19.0165098 20.2810083,19.0455203 20.0710426,19.0052461 Z"/>
        <path fill="#97A9DC" d="M19.0413419,19.5825057 C14.9727052,20.7984727 12.9383868,22.6686634 12.9383868,25.193078 C12.9383868,28.9796998 12.3164296,32.5071728 11.327853,32.5071728 C10.6688019,32.5071728 9.38449079,29.6923591 7.47491955,24.0627318 L4.13266175,25.193078 C7.28259047,35.4025259 9.76737049,40.5072499 11.5870018,40.5072499 C14.3164489,40.5072499 17.3949846,32.8520695 17.3949846,31.4484736 C17.3949846,30.0448778 18.1248845,38.9475526 17.3949846,43.6917318 C17.2319474,44.7514357 16.3782065,44.7514357 15.6015119,47.4521484 C14.8655859,50.0111009 15.0883996,56.6683595 16.2699528,67.4239243 L16.2699929,67.4239199 C16.3295749,67.9662889 16.8129408,68.3607681 17.3562447,68.3104195 C21.4283198,67.9330561 24.4823574,67.4307882 26.5183575,66.803616 C28.5889228,66.1657962 31.2274919,64.8994904 34.4340648,63.0046985 L34.4340716,63.0047099 C34.7889996,62.7949799 34.9788457,62.3889329 34.9121928,61.9820938 C31.8072071,43.0297508 30.6829951,33.2047772 31.5395568,32.5071728 C32.406181,31.8013734 35.5972687,31.4484736 41.1128197,31.4484736 L45.8811584,30.444653 L45.8811584,27.576104 C38.2169585,27.9218899 34.3848586,28.0947828 34.3848586,28.0947828 C34.3848586,28.0947828 35.022441,17.3150864 31.5395568,17.3150864 C29.217634,17.3150864 27.7202873,18.0708928 27.0475166,19.5825057 L27.0475166,25.193078 L19.0413419,19.5825057 Z"/>
      </g>
    </g>
  </g>
</svg>
