<svg xmlns="http://www.w3.org/2000/svg" width="32" height="32" viewBox="0 0 32 32">
  <g fill="#FFF" transform="translate(1)">
    <path d="M29.8116066,22.866149 C26.5199671,29.3736138 19.1923212,32.7713295 12.0987215,31.0793392 C5.00512172,29.3873488 0,23.047978 0,15.7553798 C0,8.46278154 5.00512172,2.1234107 12.0987215,0.431420349 C19.1923212,-1.26057001 26.5199671,2.13714575 29.8116066,8.64461053 C29.7623759,8.73691823 29.676222,8.69999515 29.6085297,8.69999515 L24.7900682,8.69999515 C24.6272138,8.71171559 24.4695695,8.63984833 24.3716066,8.50922592 C22.6028508,6.36724063 20.0908643,4.97169252 17.3377605,4.60153361 C12.5023218,3.90700102 7.76933703,6.40393862 5.6127412,10.7871951 C3.45614537,15.1704516 4.36610815,20.4437627 7.86699124,23.8507644 C10.1776381,26.1837572 13.4183311,27.3484166 16.6854528,27.0199952 C19.6584378,26.8007327 22.4158098,25.386525 24.3285297,23.0999952 C24.461111,22.9290256 24.6737344,22.8402378 24.8885297,22.866149 C26.4392989,22.866149 27.9654528,22.866149 29.5408374,22.866149 L29.8116066,22.866149 Z"/>
    <path d="M21.196222,17.3276875 C20.5756431,17.3270551 19.9785678,17.5650039 19.5285297,17.9923028 L18.3408374,16.8046105 C18.597547,16.4110636 18.7343757,15.9514048 18.7346836,15.4815336 C18.7331947,15.0813349 18.6316531,14.6878614 18.4392989,14.3369182 L19.6700682,13.2476875 C20.0294222,13.502979 20.4600443,13.6386249 20.9008374,13.6353798 C21.9202443,13.6461937 22.8108207,12.9485847 23.0444373,11.9562488 C23.2780538,10.9639129 22.7922252,9.94226947 21.8750575,9.49717335 C20.9578897,9.05207723 19.854697,9.30257797 19.2196946,10.1001237 C18.5846921,10.8976694 18.5877236,12.028941 19.2269912,12.8230721 L18.1192989,13.826149 C17.6470782,13.3063939 16.9753487,13.013072 16.2731451,13.0199952 C15.8032739,13.020303 15.3436151,13.1571317 14.9500682,13.4138413 L14.2916066,12.7553798 C15.2604524,11.6965935 15.2348961,10.0657883 14.23335,9.0378799 C13.2318038,8.00997154 11.6022126,7.94206345 10.5186177,8.88308011 C9.43502271,9.82409677 9.27387334,11.4471217 10.1512698,12.5828442 C11.0286663,13.7185668 12.6397943,13.9724282 13.8239143,13.1615336 L14.476222,13.8138413 C13.6104473,14.7284612 13.5890561,16.1536498 14.4269912,17.0938413 L13.5285297,17.8938413 C12.0301347,16.9113676 10.0241199,17.2801926 8.97317788,18.7313863 C7.92223586,20.18258 8.19758314,22.2035478 9.59844931,23.3206943 C10.9993155,24.4378407 13.0308829,24.2565643 14.2118272,22.9090433 C15.3927715,21.5615224 15.3059565,19.5237318 14.0146836,18.2815336 L14.8823759,17.5123028 C15.291923,17.7928465 15.7767243,17.9430062 16.2731451,17.9430721 C16.8937241,17.9437044 17.4907993,17.7057556 17.9408374,17.2784567 L19.1285297,18.466149 C18.8718201,18.8596959 18.7349914,19.3193548 18.7346836,19.7892259 C18.7346836,21.1486961 19.8367519,22.2507644 21.196222,22.2507644 C22.5556922,22.2507644 23.6577605,21.1486961 23.6577605,19.7892259 C23.6577605,18.4297558 22.5556922,17.3276875 21.196222,17.3276875 Z"/>
  </g>
</svg>
