<svg xmlns="http://www.w3.org/2000/svg" width="200" height="48" viewBox="0 0 200 48">
  <g fill="#FFF" transform="translate(28)">
    <path d="M44.7692308,34.3107692 C39.8317714,44.0719664 28.8403027,49.16854 18.199903,46.6305545 C7.5595034,44.092569 0.0518208253,34.5835127 0.0518208253,23.6446154 C0.0518208253,12.705718 7.5595034,3.19666179 18.199903,0.658676259 C28.8403027,-1.87930927 39.8317714,3.21726436 44.7692308,12.9784615 C44.6953846,13.1169231 44.5661538,13.0615385 44.4646154,13.0615385 L37.2369231,13.0615385 C36.9926415,13.0791191 36.756175,12.9713182 36.6092308,12.7753846 C33.9560971,9.56240667 30.1881172,7.46908452 26.0584615,6.91384615 C18.8053035,5.87204727 11.7058264,9.61745366 8.47093262,16.1923384 C5.23603888,22.7672232 6.60098304,30.6771898 11.8523077,35.7876923 C15.318278,39.2871815 20.1793175,41.0341706 25.08,40.5415385 C29.5394776,40.2126448 33.6755356,38.0913333 36.5446154,34.6615385 C36.7434874,34.4050841 37.0624225,34.2719024 37.3846154,34.3107692 C39.7107692,34.3107692 42,34.3107692 44.3630769,34.3107692 L44.7692308,34.3107692 Z"/>
    <path d="M31.8461538 26.0030769C30.9152854 26.0021284 30.0196725 26.3590516 29.3446154 27L27.5630769 25.2184615C27.9481414 24.6281412 28.1533844 23.9386529 28.1538462 23.2338462 28.1516129 22.6335481 27.9993005 22.0433378 27.7107692 21.5169231L29.5569231 19.8830769C30.0959541 20.2660142 30.7418873 20.4694831 31.4030769 20.4646154 32.9321872 20.4808363 34.2680519 19.4344228 34.6184767 17.9459189 34.9689016 16.4574151 34.2401587 14.9249499 32.864407 14.2573058 31.4886554 13.5896616 29.8338664 13.9654127 28.8813627 15.1617313 27.928859 16.3580498 27.9334062 18.0549573 28.8923077 19.2461538L27.2307692 20.7507692C26.5224381 19.9711365 25.5148439 19.5311537 24.4615385 19.5415385 23.7567317 19.5420002 23.0672434 19.7472432 22.4769231 20.1323077L21.4892308 19.1446154C22.9424994 17.556436 22.904165 15.1102281 21.4018458 13.5683656 19.8995265 12.026503 17.4551397 11.9246409 15.8297473 13.3361659 14.2043549 14.7476909 13.9626308 17.1822282 15.2787255 18.8858121 16.5948203 20.589396 19.0115122 20.970188 20.7876923 19.7538462L21.7661538 20.7323077C20.4674918 22.1042375 20.435405 24.2420204 21.6923077 25.6523077L20.3446154 26.8523077C18.0970228 25.3785972 15.0880007 25.9318347 13.5115876 28.1086252 11.9351746 30.2854157 12.3481955 33.3168675 14.4494948 34.9925871 16.5507941 36.6683068 19.5981451 36.3963922 21.3695616 34.3751107 23.1409781 32.3538293 23.0107555 29.2971435 21.0738462 27.4338462L22.3753846 26.28C22.9897053 26.7008155 23.7169073 26.926055 24.4615385 26.9261538 25.3924069 26.9271024 26.2880198 26.5701791 26.9630769 25.9292308L28.7446154 27.7107692C28.3595509 28.3010896 28.1543079 28.9905779 28.1538462 29.6953846 28.1538462 31.7345898 29.8069486 33.3876923 31.8461538 33.3876923 33.8853591 33.3876923 35.5384615 31.7345898 35.5384615 29.6953846 35.5384615 27.6561794 33.8853591 26.0030769 31.8461538 26.0030769zM65.3815385 28.0707692L68.3169231 28.8738462C67.8718879 31.150752 66.7030588 33.2229144 64.9846154 34.7815385 63.341434 36.1518545 61.252343 36.8712113 59.1138462 36.8030769 57.0534235 36.8871861 55.0169128 36.3361682 53.28 35.2246154 51.7149129 34.0826123 50.5283925 32.4973696 49.8738462 30.6738462 49.0839233 28.6410396 48.6891709 26.4761676 48.7107692 24.2953846 48.6687039 22.0676279 49.1293515 19.8590435 50.0584615 17.8338462 50.8605828 16.0849141 52.1778231 14.6227451 53.8338462 13.6430769 55.4670589 12.6935232 57.3262922 12.202405 59.2153846 12.2215385 61.241031 12.1659737 63.2225942 12.8188776 64.8184615 14.0676923 66.3930935 15.3870666 67.4975385 17.181385 67.9661538 19.1815385L65.0769231 19.9015385C64.7277042 18.4449268 63.9495517 17.1265691 62.8430769 16.1169231 61.7907072 15.2980084 60.4832948 14.8763679 59.1507692 14.9261538 57.6203508 14.8672393 56.1147279 15.3257551 54.8769231 16.2276923 53.7159394 17.1175113 52.8661751 18.3517697 52.4492308 19.7538462 51.9813555 21.2287535 51.7416647 22.7665101 51.7384615 24.3138462 51.7022799 26.1166063 51.977071 27.9121164 52.5507692 29.6215385 53.0024462 31.003789 53.9022262 32.1959164 55.1076923 33.0092308 56.225845 33.745032 57.5353143 34.136589 58.8738462 34.1353846 60.409696 34.1821875 61.9054402 33.6406819 63.0553846 32.6215385 64.3112213 31.4025125 65.1290059 29.8026403 65.3815385 28.0707692zM71.9169231 36.4338462L71.9815385 12.6461538 80.3538462 12.6461538C81.4819473 12.6210202 82.6099288 12.7013695 83.7230769 12.8861538 84.7218979 13.0327353 85.6712915 13.4156573 86.4923077 14.0030769 87.2678453 14.6071229 87.8776051 15.3979052 88.2646154 16.3015385 88.7154149 17.3248 88.942027 18.4326813 88.9292308 19.5507692 88.966853 21.4305093 88.3094749 23.2580204 87.0830769 24.6830769 85.8523077 26.08 83.6830769 26.7723077 80.5753846 26.76L74.88 26.76 74.88 36.4246154 71.9169231 36.4338462zM74.8892308 23.9630769L80.6215385 23.9630769C82.5230769 23.9630769 83.8707692 23.5938462 84.6646154 22.8369231 85.5059062 21.9942365 85.9460815 20.8316362 85.8738462 19.6430769 85.900103 18.7398941 85.655801 17.8494774 85.1723077 17.0861538 84.7491364 16.4085015 84.0923678 15.9093573 83.3261538 15.6830769 82.4151815 15.4992972 81.4855269 15.4249248 80.5569231 15.4615385L74.88 15.4615385 74.8892308 23.9630769zM102.747692 34.3846154C101.892231 35.195734 100.902056 35.8516863 99.8215385 36.3230769 98.8677739 36.7044294 97.848673 36.8957068 96.8215385 36.8861538 95.3309143 36.9866526 93.8629113 36.4806742 92.7507692 35.4830769 91.8056772 34.5505959 91.2935982 33.2653779 91.3384615 31.9384615 91.3291568 31.1363349 91.5161244 30.3440991 91.8830769 29.6307692 92.2140235 28.9667376 92.6981033 28.3909041 93.2953846 27.9507692 93.8918728 27.5364826 94.5532426 27.2245158 95.2523077 27.0276923 96.0511948 26.8302112 96.8621625 26.6852854 97.68 26.5938462 99.3321324 26.4338511 100.962728 26.0996873 102.544615 25.5969231 102.544615 25.2 102.544615 24.9507692 102.544615 24.84 102.646125 23.9304299 102.369068 23.0191463 101.778462 22.32 100.917167 21.5970974 99.807495 21.2393523 98.6861538 21.3230769 97.6864113 21.2448467 96.6883885 21.4943524 95.8430769 22.0338462 95.1200409 22.7136018 94.6400944 23.6118801 94.4769231 24.5907692L91.8461538 24.1569231C92.0262933 23.0966744 92.4358373 22.0885661 93.0461538 21.2030769 93.6688279 20.4042649 94.5084703 19.8017735 95.4646154 19.4676923 96.6468925 19.0380093 97.8994244 18.8344729 99.1569231 18.8676923 100.293494 18.8384721 101.425865 19.0167736 102.498462 19.3938462 103.216781 19.6638847 103.852847 20.1154915 104.344615 20.7046154 104.77299 21.296483 105.060316 21.9784884 105.184615 22.6984615 105.296271 23.592321 105.339474 24.4934046 105.313846 25.3938462L105.313846 29.2892308C105.267562 31.0077421 105.319956 32.7274935 105.470769 34.44 105.587506 35.1610604 105.818073 35.8589923 106.153846 36.5076923L103.310769 36.5076923C103.003288 35.8373212 102.812844 35.1192565 102.747692 34.3846154zM102.535385 27.8584615C101.099303 28.4041504 99.6021399 28.7730166 98.0769231 28.9569231 97.2651485 29.0466883 96.4680262 29.2389902 95.7046154 29.5292308 95.2600136 29.7213686 94.8836453 30.0430509 94.6246154 30.4523077 94.373002 30.8700339 94.2420057 31.3492887 94.2461538 31.8369231 94.2262523 32.5742597 94.5257357 33.284271 95.0676923 33.7846154 95.7361307 34.3531779 96.6018621 34.6351211 97.4769231 34.5692308 98.4493777 34.5844597 99.4073224 34.3322009 100.246154 33.84 101.057662 33.379837 101.703609 32.6757538 102.092308 31.8276923 102.432836 30.8912342 102.586502 29.8971081 102.544615 28.9015385L102.535385 27.8584615zM119.990769 34.4307692C119.133915 35.240134 118.144061 35.8958728 117.064615 36.3692308 116.110586 36.7496715 115.091666 36.940915 114.064615 36.9323077 112.573991 37.0328064 111.105988 36.5268281 109.993846 35.5292308 109.040927 34.6019606 108.527409 33.3131313 108.581538 31.9846154 108.573327 31.1796612 108.760192 30.3846932 109.126154 29.6676923 109.45622 29.0056318 109.940596 28.4326122 110.538462 27.9969231 111.131848 27.5772932 111.794169 27.2648774 112.495385 27.0738462 113.293296 26.8718106 114.104577 26.7268289 114.923077 26.64 116.572383 26.4812888 118.200054 26.1470903 119.778462 25.6430769 119.778462 25.2461538 119.778462 24.9876923 119.778462 24.8861538 119.879972 23.9765837 119.602915 23.0653001 119.012308 22.3661538 118.148181 21.6418174 117.0351 21.2840414 115.910769 21.3692308 114.913479 21.2854442 113.916623 21.5354701 113.076923 22.08 112.34828 22.7554464 111.867241 23.6557678 111.710769 24.6369231L109.052308 24.24C109.229406 23.1760417 109.639152 22.1642849 110.252308 21.2769231 110.873027 20.48219 111.709408 19.8829445 112.661538 19.5507692 113.844528 19.1238272 115.09654 18.9203753 116.353846 18.9507692 117.491005 18.9122475 118.625086 19.0908182 119.695385 19.4769231 120.430418 19.7398921 121.083124 20.1920106 121.587692 20.7876923 122.016067 21.3795599 122.303393 22.0615653 122.427692 22.7815385 122.539348 23.6753979 122.582551 24.5764815 122.556923 25.4769231L122.556923 29.3723077C122.510639 31.090819 122.563032 32.8105704 122.713846 34.5230769 122.832086 35.243769 123.062576 35.9414698 123.396923 36.5907692L120.553846 36.5907692C120.242269 35.9088865 120.051734 35.1779826 119.990769 34.4307692zM119.778462 27.9046154C118.342777 28.4497264 116.845305 28.8155685 115.32 28.9938462 114.508466 29.090179 113.711774 29.2854772 112.947692 29.5753846 112.50153 29.7650111 112.124485 30.0872719 111.867692 30.4984615 111.616079 30.9161878 111.485083 31.3954425 111.489231 31.8830769 111.465748 32.6192015 111.761974 33.3294705 112.301538 33.8307692 112.976672 34.3938106 113.842911 34.6748425 114.72 34.6153846 115.692455 34.6306135 116.650399 34.3783548 117.489231 33.8861538 118.303387 33.4250928 118.949902 32.7171587 119.335385 31.8646154 119.677784 30.9320107 119.828484 29.9399054 119.778462 28.9476923L119.778462 27.9046154zM126.101538 28.9292308L128.870769 28.68C128.954477 29.7123939 129.270001 30.7126047 129.793846 31.6061538 130.337565 32.4270371 131.111414 33.0692358 132.018462 33.4523077 133.088101 33.9367748 134.250421 34.1824685 135.424615 34.1723077 136.438116 34.1930819 137.445545 34.0110543 138.387692 33.6369231 139.159176 33.3537764 139.827995 32.8457316 140.307692 32.1784615 140.725365 31.5804501 140.947841 30.8678847 140.944615 30.1384615 140.955494 29.4392726 140.745531 28.7544697 140.344615 28.1815385 139.820628 27.540513 139.131062 27.055263 138.350769 26.7784615 137.056951 26.3136728 135.73793 25.9222812 134.4 25.6061538 132.917653 25.2807372 131.479689 24.7786897 130.116923 24.1107692 129.145764 23.592084 128.330155 22.8242647 127.753846 21.8861538 127.229788 20.9881415 126.964607 19.9625623 126.987692 18.9230769 126.975114 17.7387922 127.294916 16.5747156 127.910769 15.5630769 128.564913 14.5037667 129.532841 13.6745754 130.68 13.1907692 131.969483 12.642678 133.358991 12.3691776 134.76 12.3876923 136.254379 12.3651753 137.73644 12.660958 139.107692 13.2553846 140.302247 13.7812944 141.309531 14.6566341 141.996923 15.7661538 142.680064 16.9021223 143.052515 18.1977429 143.076923 19.5230769L140.307692 19.7353846C140.259154 18.4458593 139.713324 17.2251843 138.784615 16.3292308 137.681946 15.4797557 136.305235 15.0657566 134.916923 15.1661538 133.54043 15.0449298 132.165066 15.4108223 131.030769 16.2 130.262675 16.8120556 129.81162 17.7379065 129.803077 18.72 129.772193 19.5152356 130.084935 20.2853195 130.661538 20.8338462 131.221538 21.3876923 132.695385 21.9569231 135.083077 22.5415385 136.765526 22.8929732 138.410088 23.406126 139.993846 24.0738462 141.15412 24.5985497 142.142775 25.4400261 142.846154 26.5015385 143.471757 27.5191397 143.792135 28.6949245 143.769231 29.8892308 143.754293 32.5398945 142.217256 34.946004 139.818462 36.0738462 138.485124 36.7100314 137.021663 37.0261137 135.544615 36.9969231 133.814661 37.0570073 132.092185 36.7421123 130.495385 36.0738462 129.169229 35.4723598 128.058209 34.4804928 127.310769 33.2307692 126.524591 31.9333192 126.10656 30.4462764 126.101538 28.9292308z"/>
  </g>
</svg>
