<svg xmlns="http://www.w3.org/2000/svg" width="106" height="32" viewBox="0 0 106 32">
  <g fill="none" transform="translate(5)">
    <path fill="#6A1E83" d="M29.8461538,22.8738462 C26.5545143,29.3813109 19.2268684,32.7790267 12.1332687,31.0870363 C5.03966894,29.395046 0.0345472168,23.0556751 0.0345472168,15.7630769 C0.0345472168,8.4704787 5.03966894,2.13110786 12.1332687,0.439117506 C19.2268684,-1.25287285 26.5545143,2.14484291 29.8461538,8.65230769 C29.7969231,8.74461538 29.7107692,8.70769231 29.6430769,8.70769231 L24.8246154,8.70769231 C24.661761,8.71941275 24.5041167,8.64754549 24.4061538,8.51692308 C22.6373981,6.37493778 20.1254115,4.97938968 17.3723077,4.60923077 C12.536869,3.91469818 7.80388424,6.41163578 5.64728842,10.7948923 C3.49069259,15.1781488 4.40065536,20.4514598 7.90153846,23.8584615 C10.2121853,26.1914543 13.4528784,27.3561137 16.72,27.0276923 C19.6929851,26.8084299 22.4503571,25.3942222 24.3630769,23.1076923 C24.4956583,22.9367227 24.7082816,22.847935 24.9230769,22.8738462 C26.4738462,22.8738462 28,22.8738462 29.5753846,22.8738462 L29.8461538,22.8738462 Z"/>
    <path fill="#E3A526" d="M21.2307692,17.3353846 C20.6101903,17.3347523 20.013115,17.5727011 19.5630769,18 L18.3753846,16.8123077 C18.6320943,16.4187608 18.768923,15.9591019 18.7692308,15.4892308 C18.7677419,15.0890321 18.6662003,14.6955585 18.4738462,14.3446154 L19.7046154,13.2553846 C20.0639694,13.5106761 20.4945915,13.6463221 20.9353846,13.6430769 C21.9547915,13.6538908 22.8453679,12.9562819 23.0789845,11.963946 C23.3126011,10.97161 22.8267725,9.94996663 21.9096047,9.50487051 C20.9924369,9.05977439 19.8892443,9.31027513 19.2542418,10.1078208 C18.6192393,10.9053665 18.6222708,12.0366382 19.2615385,12.8307692 L18.1538462,13.8338462 C17.6816254,13.314091 17.0098959,13.0207691 16.3076923,13.0276923 C15.8378212,13.0280001 15.3781623,13.1648288 14.9846154,13.4215385 L14.3261538,12.7630769 C15.2949996,11.7042907 15.2694434,10.0734854 14.2678972,9.04557706 C13.266351,8.0176687 11.6367598,7.94976061 10.5531649,8.89077727 C9.46956993,9.83179392 9.30842055,11.4548188 10.185817,12.5905414 C11.0632135,13.726264 12.6743415,13.9801254 13.8584615,13.1692308 L14.5107692,13.8215385 C13.6449945,14.7361583 13.6236033,16.1613469 14.4615385,17.1015385 L13.5630769,17.9015385 C12.0646819,16.9190648 10.0586671,17.2878898 9.0077251,18.7390835 C7.95678308,20.1902771 8.23213036,22.211245 9.63299653,23.3283914 C11.0338627,24.4455379 13.0654301,24.2642614 14.2463744,22.9167405 C15.4273187,21.5692195 15.3405037,19.531429 14.0492308,18.2892308 L14.9169231,17.52 C15.3264702,17.8005436 15.8112715,17.9507033 16.3076923,17.9507692 C16.9282713,17.9514016 17.5253465,17.7134528 17.9753846,17.2861538 L19.1630769,18.4738462 C18.9063673,18.867393 18.7695386,19.3270519 18.7692308,19.7969231 C18.7692308,21.1563932 19.8712991,22.2584615 21.2307692,22.2584615 C22.5902394,22.2584615 23.6923077,21.1563932 23.6923077,19.7969231 C23.6923077,18.4374529 22.5902394,17.3353846 21.2307692,17.3353846 Z"/>
    <path fill="#333" d="M43.5876923 18.7138462L45.5446154 19.2492308C45.2479253 20.767168 44.4687059 22.1486096 43.3230769 23.1876923 42.2276227 24.1012364 40.8348953 24.5808076 39.4092308 24.5353846 38.0356157 24.5914574 36.6779419 24.2241121 35.52 23.4830769 34.4766086 22.7217415 33.685595 21.6649131 33.2492308 20.4492308 32.7226155 19.0940264 32.4594473 17.6507784 32.4738462 16.1969231 32.4458026 14.7117519 32.752901 13.2393623 33.3723077 11.8892308 33.9070552 10.723276 34.7852154 9.74849671 35.8892308 9.09538462 36.9780393 8.46234879 38.2175281 8.13493665 39.4769231 8.14769231 40.827354 8.11064914 42.1483961 8.54591837 43.2123077 9.37846154 44.2620623 10.2580444 44.998359 11.4542567 45.3107692 12.7876923L43.3846154 13.2676923C43.1518028 12.2966178 42.6330344 11.4177128 41.8953846 10.7446154 41.1938048 10.1986723 40.3221966 9.91757863 39.4338462 9.95076923 38.4135672 9.91149287 37.4098186 10.2171701 36.5846154 10.8184615 35.8106263 11.4116742 35.2441167 12.2345131 34.9661538 13.1692308 34.654237 14.1525024 34.4944431 15.1776734 34.4923077 16.2092308 34.4681866 17.4110709 34.6513807 18.6080776 35.0338462 19.7476923 35.3349641 20.6691927 35.9348175 21.4639443 36.7384615 22.0061538 37.4838966 22.496688 38.3568762 22.757726 39.2492308 22.7569231 40.2731307 22.788125 41.2702935 22.4271213 42.0369231 21.7476923 42.8741476 20.9350083 43.4193373 19.8684269 43.5876923 18.7138462zM47.9446154 24.2892308L47.9876923 8.43076923 53.5692308 8.43076923C54.3212982 8.41401344 55.0732859 8.46757969 55.8153846 8.59076923 56.4812653 8.68849018 57.1141943 8.94377156 57.6615385 9.33538462 58.1785635 9.73808192 58.5850701 10.2652701 58.8430769 10.8676923 59.1436099 11.5498666 59.2946846 12.2884542 59.2861538 13.0338462 59.3112354 14.2870062 58.8729833 15.5053469 58.0553846 16.4553846 57.2348718 17.3866667 55.7887179 17.8482051 53.7169231 17.84L49.92 17.84 49.92 24.2830769 47.9446154 24.2892308zM49.9261538 15.9753846L53.7476923 15.9753846C55.0153846 15.9753846 55.9138462 15.7292308 56.4430769 15.2246154 57.0039375 14.6628243 57.2973876 13.8877574 57.2492308 13.0953846 57.2667354 12.4932628 57.1038673 11.8996516 56.7815385 11.3907692 56.4994243 10.939001 56.0615785 10.6062382 55.5507692 10.4553846 54.9434543 10.3328648 54.3236846 10.2832832 53.7046154 10.3076923L49.92 10.3076923 49.9261538 15.9753846zM68.4984615 22.9230769C67.9281542 23.4638227 67.2680372 23.9011242 66.5476923 24.2153846 65.9118492 24.4696196 65.2324487 24.5971378 64.5476923 24.5907692 63.5539429 24.6577684 62.5752742 24.3204495 61.8338462 23.6553846 61.2037848 23.0337306 60.8623988 22.1769186 60.8923077 21.2923077 60.8861045 20.7575566 61.0107496 20.2293994 61.2553846 19.7538462 61.4760157 19.3111584 61.7987356 18.9272694 62.1969231 18.6338462 62.5945819 18.3576551 63.035495 18.1496772 63.5015385 18.0184615 64.0341298 17.8868075 64.574775 17.7901903 65.12 17.7292308 66.2214216 17.6225674 67.3084853 17.3997915 68.3630769 17.0646154 68.3630769 16.8 68.3630769 16.6338462 68.3630769 16.56 68.4307503 15.9536199 68.2460457 15.3460975 67.8523077 14.88 67.2781116 14.3980649 66.53833 14.1595682 65.7907692 14.2153846 65.1242742 14.1632311 64.4589256 14.3295683 63.8953846 14.6892308 63.4133606 15.1424012 63.0933963 15.7412534 62.9846154 16.3938462L61.2307692 16.1046154C61.3508622 15.397783 61.6238915 14.7257107 62.0307692 14.1353846 62.4458853 13.6028433 63.0056468 13.2011823 63.6430769 12.9784615 64.4312616 12.6920062 65.2662829 12.5563152 66.1046154 12.5784615 66.8623292 12.5589814 67.6172434 12.6778491 68.3323077 12.9292308 68.8111872 13.1092564 69.2352312 13.4103276 69.5630769 13.8030769 69.8486597 14.1976553 70.0402106 14.6523256 70.1230769 15.1323077 70.1975142 15.728214 70.2263159 16.3289364 70.2092308 16.9292308L70.2092308 19.5261538C70.1783744 20.6718281 70.2133037 21.818329 70.3138462 22.96 70.3916706 23.4407069 70.5453818 23.9059949 70.7692308 24.3384615L68.8738462 24.3384615C68.6688584 23.8915475 68.5418963 23.4128377 68.4984615 22.9230769zM68.3569231 18.5723077C67.3995351 18.9361003 66.4014266 19.1820111 65.3846154 19.3046154 64.8434323 19.3644589 64.3120175 19.4926601 63.8030769 19.6861538 63.5066757 19.8142457 63.2557635 20.0287006 63.0830769 20.3015385 62.9153347 20.5800226 62.8280038 20.8995258 62.8307692 21.2246154 62.8175015 21.7161732 63.0171572 22.189514 63.3784615 22.5230769 63.8240872 22.9021186 64.4012414 23.0900807 64.9846154 23.0461538 65.6329185 23.0563065 66.2715483 22.8881339 66.8307692 22.56 67.3717743 22.2532247 67.8024063 21.7838359 68.0615385 21.2184615 68.2885573 20.5941561 68.3910014 19.9314054 68.3630769 19.2676923L68.3569231 18.5723077zM79.9938462 22.9538462C79.4226097 23.4934226 78.7627075 23.9305818 78.0430769 24.2461538 77.4070573 24.499781 76.7277774 24.6272766 76.0430769 24.6215385 75.0493275 24.6885376 74.0706588 24.3512187 73.3292308 23.6861538 72.6939515 23.0679737 72.3516062 22.2087542 72.3876923 21.3230769 72.3822177 20.7864408 72.5067944 20.2564621 72.7507692 19.7784615 72.9708136 19.3370879 73.2937308 18.9550748 73.6923077 18.6646154 74.0878983 18.3848622 74.5294461 18.1765849 74.9969231 18.0492308 75.5288641 17.9145404 76.0697181 17.8178859 76.6153846 17.76 77.7149222 17.6541925 78.8000358 17.4313935 79.8523077 17.0953846 79.8523077 16.8307692 79.8523077 16.6584615 79.8523077 16.5907692 79.919981 15.9843892 79.7352764 15.3768667 79.3415385 14.9107692 78.7654542 14.4278782 78.0234003 14.1893609 77.2738462 14.2461538 76.608986 14.1902962 75.944415 14.3569801 75.3846154 14.72 74.8988531 15.1702976 74.5781609 15.7705119 74.4738462 16.4246154L72.7015385 16.16C72.8196041 15.4506945 73.0927679 14.77619 73.5015385 14.1846154 73.9153517 13.6547933 74.4729383 13.2552963 75.1076923 13.0338462 75.896352 12.7492181 76.7310264 12.6135835 77.5692308 12.6338462 78.327337 12.608165 79.0833909 12.7272122 79.7969231 12.9846154 80.286945 13.1599281 80.7220825 13.4613404 81.0584615 13.8584615 81.3440444 14.2530399 81.5355953 14.7077102 81.6184615 15.1876923 81.6928988 15.7835986 81.7217005 16.384321 81.7046154 16.9846154L81.7046154 19.5815385C81.673759 20.7272127 81.7086883 21.8737136 81.8092308 23.0153846 81.8880571 23.495846 82.0417174 23.9609799 82.2646154 24.3938462L80.3692308 24.3938462C80.1615125 23.9392577 80.0344893 23.4519884 79.9938462 22.9538462zM79.8523077 18.6030769C78.8951845 18.9664843 77.8968697 19.210379 76.88 19.3292308 76.3389775 19.3934527 75.8078492 19.5236514 75.2984615 19.7169231 75.0010199 19.8433407 74.7496564 20.0581813 74.5784615 20.3323077 74.4107193 20.6107919 74.3233884 20.930295 74.3261538 21.2553846 74.3104984 21.7461343 74.5079823 22.219647 74.8676923 22.5538462 75.3177811 22.9292071 75.895274 23.1165617 76.48 23.0769231 77.1283031 23.0870757 77.7669329 22.9189032 78.3261538 22.5907692 78.8689244 22.2833952 79.2999346 21.8114391 79.5569231 21.2430769 79.7851895 20.6213405 79.8856559 19.9599369 79.8523077 19.2984615L79.8523077 18.6030769zM84.0676923 19.2861538L85.9138462 19.12C85.9696512 19.8082626 86.1800005 20.4750698 86.5292308 21.0707692 86.8917098 21.6180247 87.4076094 22.0461572 88.0123077 22.3015385 88.7254005 22.6245165 89.5002805 22.7883123 90.2830769 22.7815385 90.9587441 22.795388 91.6303634 22.6740362 92.2584615 22.4246154 92.772784 22.2358509 93.2186631 21.8971544 93.5384615 21.4523077 93.8169103 21.0536334 93.9652271 20.5785898 93.9630769 20.0923077 93.9703295 19.6261817 93.830354 19.1696465 93.5630769 18.7876923 93.213752 18.360342 92.7540415 18.036842 92.2338462 17.8523077 91.3713007 17.5424486 90.4919535 17.2815208 89.6 17.0707692 88.6117684 16.8538248 87.6531263 16.5191265 86.7446154 16.0738462 86.0971761 15.728056 85.5534368 15.2161764 85.1692308 14.5907692 84.8198589 13.9920944 84.6430716 13.3083749 84.6584615 12.6153846 84.6500763 11.8258615 84.8632771 11.0498104 85.2738462 10.3753846 85.7099422 9.66917781 86.3552272 9.11638361 87.12 8.79384615 87.9796553 8.428452 88.9059937 8.24611842 89.84 8.25846154 90.8362529 8.24345022 91.8242931 8.44063869 92.7384615 8.83692308 93.5348313 9.18752961 94.2063541 9.7710894 94.6646154 10.5107692 95.1200427 11.2680815 95.3683435 12.1318286 95.3846154 13.0153846L93.5384615 13.1569231C93.5061026 12.2972395 93.1422157 11.4834562 92.5230769 10.8861538 91.7879637 10.3198371 90.8701564 10.0438378 89.9446154 10.1107692 89.026953 10.0299532 88.1100438 10.2738815 87.3538462 10.8 86.8417834 11.2080371 86.5410797 11.825271 86.5353846 12.48 86.5147955 13.010157 86.7232898 13.5235463 87.1076923 13.8892308 87.4810256 14.2584615 88.4635897 14.6379487 90.0553846 15.0276923 91.1770172 15.2619821 92.2733919 15.604084 93.3292308 16.0492308 94.1027469 16.3990331 94.7618501 16.9600174 95.2307692 17.6676923 95.6478382 18.3460931 95.8614231 19.1299497 95.8461538 19.9261538 95.8361952 21.693263 94.8115038 23.297336 93.2123077 24.0492308 92.323416 24.4733542 91.3477751 24.6840758 90.3630769 24.6646154 89.2097741 24.7046716 88.0614568 24.4947415 86.9969231 24.0492308 86.1128192 23.6482399 85.3721393 22.9869952 84.8738462 22.1538462 84.3497273 21.2888795 84.0710398 20.2975176 84.0676923 19.2861538z"/>
  </g>
</svg>
